<?xml version="1.0" encoding="utf-8"?>
<!-- Generator: Adobe Illustrator 25.4.1, SVG Export Plug-In . SVG Version: 6.00 Build 0)  -->
<svg version="1.1" xmlns="http://www.w3.org/2000/svg" xmlns:xlink="http://www.w3.org/1999/xlink" x="0px" y="0px"
	 viewBox="0 0 1020.47 189.47" style="enable-background:new 0 0 1020.47 189.47;" xml:space="preserve">
<style type="text/css">
	.st0{display:none;}
	.st1{display:inline;}
	.st2{fill-rule:evenodd;clip-rule:evenodd;fill:url(#SVGID_00000041986644474957243160000005119332228945600408_);}
	.st3{enable-background:new    ;}
	.st4{clip-path:url(#SVGID_00000137104190583543033210000016344836304958660768_);fill:#010101;}
	.st5{clip-path:url(#SVGID_00000047033095005551004390000011745392699644527780_);fill:#010101;}
	.st6{fill:#FFFFFF;}
	.st7{clip-path:url(#SVGID_00000022523310236679583670000013674010279436777896_);fill:#010101;}
	.st8{clip-path:url(#SVGID_00000059279881784015409180000006164297063697386632_);fill:#010101;}
	.st9{clip-path:url(#SVGID_00000059998068401879665340000003088072445936804782_);fill:#010101;}
	.st10{clip-path:url(#SVGID_00000015323038063525753530000012928019217447534212_);fill:#010101;}
	.st11{clip-path:url(#SVGID_00000020379731724881134900000011268747320027049405_);fill:#010101;}
	.st12{clip-path:url(#SVGID_00000062890917007492254740000017470595749836169099_);fill:#010101;}
	.st13{fill:#010101;}
	.st14{opacity:0.9936;}
	.st15{clip-path:url(#SVGID_00000055704526579937364210000007335920901400693136_);fill:#010101;}
	.st16{clip-path:url(#SVGID_00000176751598534277363190000017292039359879644311_);fill:#010101;}
	.st17{clip-path:url(#SVGID_00000129896694784255042210000012072003051859686561_);fill:#010101;}
	.st18{fill:#FF5300;}
	.st19{fill-rule:evenodd;clip-rule:evenodd;fill:url(#SVGID_00000104700341618767576010000014324831845202657412_);}
	.st20{clip-path:url(#SVGID_00000147923190408482435260000011895329680908600237_);fill:#010101;}
	.st21{clip-path:url(#SVGID_00000121247925149847026310000016077164711727773326_);fill:#010101;}
	.st22{clip-path:url(#SVGID_00000083080774199430625100000012652910809090984345_);fill:#010101;}
	.st23{clip-path:url(#SVGID_00000018220715453644592050000003176583888363745450_);fill:#010101;}
	.st24{clip-path:url(#SVGID_00000011725006218276988520000015117325007101308299_);fill:#010101;}
	.st25{clip-path:url(#SVGID_00000054264232890604952190000014964106539100869275_);fill:#010101;}
	.st26{clip-path:url(#SVGID_00000047056985403564123120000002399025051103310771_);fill:#010101;}
	.st27{clip-path:url(#SVGID_00000157292189724781916640000016110728680096672653_);fill:#010101;}
</style>
<g id="Square" class="st0">
	<g class="st1">
		
			<linearGradient id="SVGID_00000168087507457735327990000002324866493246415033_" gradientUnits="userSpaceOnUse" x1="77.9035" y1="94.7348" x2="216.193" y2="94.7348">
			<stop  offset="0" style="stop-color:#FF4700"/>
			<stop  offset="1" style="stop-color:#FF6900"/>
		</linearGradient>
		
			<rect x="77.9" y="25.97" style="fill-rule:evenodd;clip-rule:evenodd;fill:url(#SVGID_00000168087507457735327990000002324866493246415033_);" width="138.29" height="137.53"/>
	</g>
</g>
<g id="Logo" class="st0">
	<g class="st1">
		<g class="st3">
			<g>
				<defs>
					<rect id="SVGID_00000150060610250192772390000016946307849187915686_" x="91.65" y="86.15" width="33.01" height="16.97"/>
				</defs>
				<clipPath id="SVGID_00000163778428268525096190000017544337288274780586_">
					<use xlink:href="#SVGID_00000150060610250192772390000016946307849187915686_"  style="overflow:visible;"/>
				</clipPath>
				<path style="clip-path:url(#SVGID_00000163778428268525096190000017544337288274780586_);fill:#010101;" d="M124.62,86.1
					l-7.92,0.09c0,0-0.04,1.75-0.04,1.75c0.01-0.49-5.38-1.37-5.79-1.44c-4.08-0.62-8.38-0.52-12.28,0.95
					c-3.02,1.14-5.99,2.85-6.79,6.21c-0.59,2.5,0.53,4.72,2.54,6.21c1.12,0.83,2.36,1.5,3.66,2c3.01,1.18,6.71,1.25,9.92,1.24
					c3.47-0.01,7.07-0.3,10.36-1.47c2.82-1,5.49-2.82,6.38-5.83l-5.79,0.05c-0.19,0-1.05,1.05-1.23,1.19
					c-1.14,0.89-2.49,1.48-3.9,1.78c-3.26,0.67-10.37-0.21-9.2-5.21c0.62-2.65,5.09-3.86,7.42-3.18c0,0,3.71,1.09,5.19,2.83
					l7.37-0.05L124.62,86.1z"/>
			</g>
		</g>
		<g class="st3">
			<g>
				<defs>
					<rect id="SVGID_00000102506654403624735920000003699426997394211973_" x="124.77" y="86.11" width="36.03" height="16.98"/>
				</defs>
				<clipPath id="SVGID_00000025426830861591099010000014440958521966548651_">
					<use xlink:href="#SVGID_00000102506654403624735920000003699426997394211973_"  style="overflow:visible;"/>
				</clipPath>
				<polygon style="clip-path:url(#SVGID_00000025426830861591099010000014440958521966548651_);fill:#010101;" points="
					125.76,93.03 125.76,86.11 160.8,86.11 145.98,98.73 152.89,98.73 152.89,95.73 160.4,95.73 160.4,103.08 124.77,103.08 
					140.13,90.42 132.98,90.42 132.98,93.03 				"/>
			</g>
		</g>
		<path class="st6" d="M131.3,106.7c2.41-0.02,5,1.47,6.03,3.96c0.44,1.06,0.86,2.13,1.27,3.2c0.32,0.84,0.67,1.67,1.05,2.48
			c1.12,2.36,2.7,4.36,4.76,5.98c0.47,0.37,0.95,0.74,1.42,1.1c0.04,0.03,0.08,0.06,0.12,0.09c0.13,0.09,0.23,0.1,0.34,0.01
			c0.77-0.6,1.55-1.18,2.29-1.8c1.82-1.51,3.2-3.35,4.22-5.47c0.52-1.08,0.95-2.19,1.39-3.31c0.31-0.81,0.63-1.63,0.98-2.43
			c0.86-1.99,2.4-3.22,4.47-3.77c1.43-0.38,2.82-0.2,4.16,0.39c0.84,0.37,1.52,0.94,2.07,1.68c0.68,0.92,1.08,1.96,1.24,3.09
			c0.22,1.56-0.08,3.04-0.81,4.41c-0.85,1.59-2.15,2.66-3.89,3.19c-0.83,0.25-1.67,0.27-2.52,0.08c-0.51-0.11-1.01-0.26-1.5-0.47
			c-0.53-0.23-1.02-0.53-1.41-0.97c-0.12-0.13-0.24-0.26-0.37-0.37c-0.09-0.08-0.21-0.12-0.32-0.17c-0.13-0.06-0.25-0.03-0.35,0.05
			c-0.13,0.11-0.27,0.23-0.37,0.37c-0.23,0.33-0.45,0.66-0.65,1.01c-0.36,0.63-0.7,1.27-1.04,1.91c-1.15,2.16-2.39,4.26-3.82,6.25
			c-0.04,0.06-0.08,0.13-0.12,0.19c-0.05,0.07-0.05,0.14,0,0.2c0.12,0.19,0.25,0.38,0.38,0.56c3.61,5.12,7.22,10.24,10.83,15.36
			c0.76,1.07,1.32,2.23,1.65,3.5c0.6,2.28,0.26,4.4-1.05,6.36c-0.09,0.14-0.19,0.15-0.29,0.03c-0.05-0.06-0.09-0.12-0.14-0.18
			c-0.09-0.12-0.18-0.24-0.27-0.36c-4.77-6.53-9.55-13.05-14.32-19.58c-0.13-0.18-0.26-0.37-0.4-0.54
			c-0.14-0.17-0.18-0.16-0.34,0.02c-0.1,0.11-0.18,0.24-0.27,0.36c-2.41,3.28-4.82,6.55-7.23,9.83c-2.41,3.28-4.82,6.56-7.23,9.84
			c-0.12,0.16-0.24,0.31-0.37,0.46c-0.02,0.02-0.09,0.01-0.14,0c-0.02,0-0.04-0.03-0.05-0.05c-0.76-1.12-1.21-2.34-1.34-3.69
			c-0.09-1.01,0.05-1.99,0.34-2.96c0.34-1.16,0.86-2.23,1.56-3.22c3.6-5.07,7.19-10.14,10.78-15.21c0.1-0.14,0.2-0.28,0.3-0.43
			c0.14-0.2,0.14-0.24-0.02-0.46c-1-1.41-1.91-2.86-2.75-4.37c-0.49-0.87-0.95-1.76-1.43-2.63c-0.31-0.57-0.63-1.13-0.96-1.69
			c-0.15-0.26-0.33-0.5-0.56-0.69c-0.16-0.14-0.35-0.16-0.55-0.05c-0.09,0.05-0.17,0.1-0.25,0.17c-0.08,0.06-0.14,0.14-0.21,0.21
			c-0.51,0.61-1.19,0.99-1.93,1.24c-0.38,0.13-0.76,0.24-1.15,0.32c-1.22,0.24-2.39,0.07-3.49-0.51c-1.67-0.88-2.8-2.22-3.36-4.03
			c-0.19-0.62-0.33-1.26-0.35-1.91c-0.06-1.79,0.44-3.4,1.63-4.76c0.75-0.86,1.71-1.35,2.79-1.65
			C130.28,106.75,130.83,106.7,131.3,106.7 M131.86,116.93c1,0.01,1.95-0.38,2.58-0.99c0.36-0.35,0.65-0.75,0.8-1.24
			c0.16-0.53,0.22-1.07,0.13-1.62c-0.29-1.63-1.24-2.74-2.75-3.37c-1.03-0.43-2.03-0.35-3,0.23c-0.85,0.5-1.33,1.24-1.53,2.19
			c-0.12,0.55-0.09,1.08,0,1.63C128.4,115.67,130.08,116.98,131.86,116.93 M160.8,116.8c1.26,0.05,2.78-0.86,3.37-2.39
			c0.22-0.56,0.33-1.15,0.3-1.75c-0.08-1.66-0.96-2.85-2.72-3.29c-0.27-0.07-0.54-0.08-0.82-0.05c-0.5,0.06-0.98,0.17-1.43,0.4
			c-0.8,0.41-1.43,0.99-1.89,1.76c-0.48,0.8-0.64,1.66-0.51,2.58c0.09,0.64,0.37,1.18,0.81,1.64
			C158.67,116.45,159.58,116.78,160.8,116.8"/>
		<path class="st6" d="M102.61,81.11H85.68c-0.1,0-0.2-0.01-0.3,0c-0.16,0.01-0.26-0.06-0.33-0.19c-0.06-0.12-0.11-0.25-0.12-0.39
			c0-0.09,0-0.17,0-0.26v-6.84c0-0.08,0-0.15,0-0.22c0.01-0.25,0.15-0.42,0.39-0.47c0.13-0.03,0.27-0.03,0.41-0.03
			c2.45,0,4.91,0,7.36,0c0.56,0,0.49,0.07,0.49-0.5c0-4.52,0-9.05,0-13.57c0-0.11,0-0.22,0-0.34c0-0.09-0.05-0.13-0.14-0.13
			c-0.1,0-0.2,0-0.3,0c-2.45,0-4.91,0-7.36,0c-0.11,0-0.22,0.01-0.34,0c-0.38-0.03-0.56-0.23-0.57-0.6c-0.01-0.32,0-0.65,0-0.97
			c0-1.78,0-3.56,0-5.35c0-0.3,0.04-0.59,0.14-0.88c0.07-0.19,0.18-0.29,0.39-0.27c0.09,0.01,0.17,0,0.26,0h11.29
			c0.07,0,0.15,0,0.22,0c0.76,0.04,1.38-0.26,1.91-0.78c0.33-0.33,0.61-0.69,0.86-1.08c0.36-0.56,0.66-1.14,0.96-1.73
			c0.09-0.17,0.2-0.32,0.34-0.44c0.09-0.07,0.19-0.12,0.31-0.12c0.09,0,0.17,0,0.26,0c3.11,0,6.23,0,9.35,0c0.1,0,0.2,0,0.3,0.01
			c0.25,0.03,0.41,0.19,0.42,0.44c0.01,0.11,0,0.22,0,0.34c0,8.5,0,17,0,25.5c0,0.12,0,0.25,0.01,0.37c0,0.05,0.04,0.09,0.1,0.1
			c0.11,0.01,0.22,0.01,0.34,0.01c2.39,0,4.78,0,7.18,0c0.1,0,0.2-0.01,0.3,0c0.26,0.02,0.41,0.15,0.48,0.4
			c0.02,0.09,0.03,0.2,0.03,0.29c0,2.37,0,4.74,0,7.1c0,0.11,0.01,0.22-0.03,0.33c-0.06,0.18-0.16,0.27-0.35,0.28
			c-0.11,0.01-0.22,0-0.34,0C113.93,81.11,108.27,81.11,102.61,81.11"/>
		<g class="st3">
			<g>
				<defs>
					<rect id="SVGID_00000017505611854497561340000007697398515109163191_" x="174.35" y="54.94" width="5.42" height="2.47"/>
				</defs>
				<clipPath id="SVGID_00000043421071813300397310000012128396395058911368_">
					<use xlink:href="#SVGID_00000017505611854497561340000007697398515109163191_"  style="overflow:visible;"/>
				</clipPath>
				<path style="clip-path:url(#SVGID_00000043421071813300397310000012128396395058911368_);fill:#010101;" d="M174.35,55.71
					l1.5-0.35l1.84,0.18c0,0,0.93,1.05,0.67,1.47l0.93,0.41c0,0,0.62-0.02,0.44-0.42l-1.05-1.65l-1.24-0.29l-1.52-0.13l-1.18,0.33
					L174.35,55.71z"/>
			</g>
		</g>
		<g class="st3">
			<g>
				<defs>
					<rect id="SVGID_00000045593339134433069900000018284273302141092017_" x="184.87" y="56.22" width="9.83" height="1.97"/>
				</defs>
				<clipPath id="SVGID_00000019641421490181336380000001611896690137135030_">
					<use xlink:href="#SVGID_00000045593339134433069900000018284273302141092017_"  style="overflow:visible;"/>
				</clipPath>
				<polygon style="clip-path:url(#SVGID_00000019641421490181336380000001611896690137135030_);fill:#010101;" points="
					184.87,57.15 185.3,58.01 186.1,58.19 187.58,57.01 190.65,56.84 194.7,58.19 191.02,56.22 187.02,56.22 				"/>
			</g>
		</g>
		<g class="st3">
			<g>
				<defs>
					<rect id="SVGID_00000114040085640907520030000000490905472521508784_" x="135.21" y="55.2" width="8.33" height="5.4"/>
				</defs>
				<clipPath id="SVGID_00000111149359911699864300000018099884809134500999_">
					<use xlink:href="#SVGID_00000114040085640907520030000000490905472521508784_"  style="overflow:visible;"/>
				</clipPath>
				<polygon style="clip-path:url(#SVGID_00000111149359911699864300000018099884809134500999_);fill:#010101;" points="
					143.54,55.2 142.72,56.54 139.47,56.64 136.72,60.6 135.21,59.41 138.97,55.2 				"/>
			</g>
		</g>
		<g class="st3">
			<g>
				<defs>
					<rect id="SVGID_00000134245727717994810380000012024237488114633868_" x="150.88" y="54.91" width="6.94" height="3.4"/>
				</defs>
				<clipPath id="SVGID_00000088127934096724017710000012793869633550116519_">
					<use xlink:href="#SVGID_00000134245727717994810380000012024237488114633868_"  style="overflow:visible;"/>
				</clipPath>
				<polygon style="clip-path:url(#SVGID_00000088127934096724017710000012793869633550116519_);fill:#010101;" points="
					150.88,54.91 151.07,56.19 153.17,55.94 157.66,58.3 157.82,58.25 155.59,55.6 154.71,55.3 				"/>
			</g>
		</g>
		<g class="st3">
			<g>
				<defs>
					<rect id="SVGID_00000101788795438611942980000004671670686966026655_" x="148.39" y="63.25" width="7.64" height="8.02"/>
				</defs>
				<clipPath id="SVGID_00000053511178464027797230000017410863680830810287_">
					<use xlink:href="#SVGID_00000101788795438611942980000004671670686966026655_"  style="overflow:visible;"/>
				</clipPath>
				<polygon style="clip-path:url(#SVGID_00000053511178464027797230000017410863680830810287_);fill:#010101;" points="
					148.39,64.04 150.26,63.25 156.04,67.29 151.78,71.27 150.88,69.99 153.89,67.67 				"/>
			</g>
		</g>
		<g class="st3">
			<g>
				<defs>
					<rect id="SVGID_00000182488112009954552040000002100430505961427898_" x="132.52" y="67.11" width="14.34" height="5.68"/>
				</defs>
				<clipPath id="SVGID_00000090998615819493344820000002341520065564072580_">
					<use xlink:href="#SVGID_00000182488112009954552040000002100430505961427898_"  style="overflow:visible;"/>
				</clipPath>
				<polygon style="clip-path:url(#SVGID_00000090998615819493344820000002341520065564072580_);fill:#010101;" points="
					132.52,67.26 134.83,70.72 145.74,72.79 146.87,71.16 135.47,68.85 134.85,67.11 				"/>
			</g>
		</g>
		<path class="st13" d="M142.58,44.91c-10.55,0-19.1,8.7-19.1,19.43c0,10.73,8.55,19.43,19.1,19.43s19.09-8.7,19.09-19.43
			C161.67,53.61,153.13,44.91,142.58,44.91 M142.69,79.1c-9.66,0-17.5-6.28-17.5-14.02c0-7.74,7.84-14.02,17.5-14.02
			c9.67,0,17.5,6.28,17.5,14.02C160.19,72.82,152.35,79.1,142.69,79.1"/>
		<path class="st13" d="M188.97,44.53c-10.54,0-19.09,8.57-19.09,19.13c0,10.57,8.55,19.13,19.09,19.13
			c10.54,0,19.09-8.57,19.09-19.13C208.06,53.1,199.51,44.53,188.97,44.53 M188.87,78.15c-9.67,0-17.51-6.28-17.51-14.02
			c0-7.74,7.84-14.02,17.51-14.02s17.51,6.28,17.51,14.02C206.37,71.87,198.53,78.15,188.87,78.15"/>
		<g class="st14">
			<g>
				<defs>
					<path id="SVGID_00000080907682497195082360000012434166616436404881_" d="M151.94,71.1"/>
				</defs>
				<clipPath id="SVGID_00000063635034169241084310000003773913769391374488_">
					<use xlink:href="#SVGID_00000080907682497195082360000012434166616436404881_"  style="overflow:visible;"/>
				</clipPath>
			</g>
		</g>
		<g class="st3">
			<g>
				<defs>
					<rect id="SVGID_00000108299213399250988700000005344421571372289680_" x="141.15" y="60.87" width="1.75" height="1.75"/>
				</defs>
				<clipPath id="SVGID_00000027600230579133849640000006098833044882456193_">
					<use xlink:href="#SVGID_00000108299213399250988700000005344421571372289680_"  style="overflow:visible;"/>
				</clipPath>
				<path style="clip-path:url(#SVGID_00000027600230579133849640000006098833044882456193_);fill:#010101;" d="M141.15,61.75
					c0-0.48,0.39-0.87,0.87-0.87c0.48,0,0.87,0.39,0.87,0.87c0,0.48-0.39,0.87-0.87,0.87C141.54,62.62,141.15,62.23,141.15,61.75"/>
			</g>
		</g>
		<g class="st3">
			<g>
				<defs>
					<rect id="SVGID_00000059296619663067573840000010331926918211481781_" x="154.69" y="60.08" width="1.75" height="1.75"/>
				</defs>
				<clipPath id="SVGID_00000014601558854168134120000009135039953437770675_">
					<use xlink:href="#SVGID_00000059296619663067573840000010331926918211481781_"  style="overflow:visible;"/>
				</clipPath>
				<path style="clip-path:url(#SVGID_00000014601558854168134120000009135039953437770675_);fill:#010101;" d="M154.69,60.95
					c0-0.48,0.39-0.87,0.87-0.87c0.48,0,0.87,0.39,0.87,0.87c0,0.48-0.39,0.87-0.87,0.87C155.08,61.82,154.69,61.43,154.69,60.95"/>
			</g>
		</g>
		<path class="st6" d="M146.74,57.22l-12.99,1.1l1.77,7.61l12.69-2.29L146.74,57.22z M136.72,64.75l-0.85-4.89l9.98-1.04l0.7,4.25
			L136.72,64.75z"/>
		<path class="st6" d="M149.71,57l-0.29,6.62l12.86-0.02l0.52-7.75L149.71,57z M160.89,62.62h-9.88l-0.13-4.26l10.05-0.66
			L160.89,62.62z"/>
		<path class="st13" d="M191.77,59.2c-0.07,0.41-0.22,0.74-0.38,1.07c-0.03,0.06-0.11,0.11-0.17,0.15c-0.04,0.03-0.1,0.04-0.15,0.06
			c-0.37,0.1-0.68,0.26-0.73,0.7c-0.21,0.43-0.68,0.64-1.12,0.5c-0.41-0.13-0.68-0.55-0.64-0.98c0.04-0.42,0.39-0.77,0.83-0.82
			c0.1-0.01,0.21,0,0.31,0.02c0.35,0.04,0.61-0.09,0.77-0.41c0.01-0.02,0.04-0.05,0.05-0.05c0.04,0.03,0.1,0.05,0.11,0.09
			c0.05,0.12,0.08,0.25,0.13,0.37c0.01,0.03,0.09,0.05,0.14,0.04c0.16-0.03,0.3-0.11,0.41-0.22
			C191.46,59.56,191.59,59.41,191.77,59.2"/>
		<path class="st13" d="M174.42,58.82c0.23,0.04,0.31,0.27,0.5,0.36c0.07,0.03,0.16,0.07,0.22,0.05c0.05-0.02,0.07-0.13,0.1-0.2
			c0.02-0.05,0.03-0.1,0.06-0.14c0.01-0.02,0.03-0.04,0.06-0.05c0.02-0.01,0.06,0,0.08,0.01c0.22,0.2,0.47,0.33,0.78,0.3
			c0.05-0.01,0.1,0.02,0.15,0.04c0.44,0.14,0.69,0.59,0.61,1.07c-0.07,0.41-0.48,0.74-0.9,0.74c-0.37,0-0.72-0.25-0.85-0.6
			c-0.03-0.07-0.05-0.15-0.06-0.23c-0.02-0.2-0.13-0.33-0.3-0.43c-0.33-0.19-0.43-0.5-0.44-0.86c0-0.02,0.02-0.05,0.03-0.07
			L174.42,58.82z"/>
		<path class="st13" d="M178.54,66.18c-0.02,0.02-0.04,0.04-0.07,0.04c-0.3,0.03-0.57-0.09-0.83-0.21c-0.04-0.02-0.07-0.07-0.1-0.12
			c-0.02-0.02-0.02-0.05-0.03-0.07c-0.1-0.36-0.19-0.71-0.29-1.07c0.11-0.36,0.37-0.64,0.57-0.95c0.28-0.45,0.58-0.88,0.88-1.32
			c0.04-0.06,0.09-0.13,0.15-0.17c0.03-0.03,0.11-0.04,0.14-0.02c0.04,0.02,0.08,0.08,0.07,0.12c-0.01,0.1-0.03,0.21-0.07,0.3
			c-0.26,0.61-0.53,1.21-0.8,1.81c-0.08,0.18-0.09,0.35-0.02,0.54c0.12,0.32,0.24,0.64,0.36,0.96
			C178.54,66.08,178.53,66.13,178.54,66.18"/>
		<path class="st6" d="M156.39,50.94c-0.39,0.41-0.79,0.82-1.18,1.24c-0.12,0.13-0.23,0.26-0.35,0.39c-0.09,0.1-0.2,0.14-0.33,0.09
			c-0.14-0.05-0.28-0.1-0.42-0.15c-1.63-0.6-3.26-1.2-4.88-1.81c-0.38-0.14-0.75-0.23-1.16-0.25c-0.84-0.06-1.68-0.15-2.52-0.23
			c-0.52-0.05-1.04-0.09-1.56-0.13c-0.79-0.07-1.58-0.13-2.37-0.2c-0.35-0.03-0.69-0.02-1.04,0.02c-0.57,0.07-1.13,0.15-1.7,0.22
			c-0.25,0.03-0.49,0.05-0.74,0.07c-0.21,0.02-0.31-0.05-0.39-0.26c-0.2-0.53-0.4-1.07-0.6-1.6c-0.06-0.15-0.05-0.29,0-0.44
			c0.2-0.61,0.4-1.23,0.59-1.84c0.06-0.19,0.09-0.38,0.14-0.58c0.01-0.02,0.04-0.04,0.04-0.06c0.1-0.44,0.33-0.77,0.77-0.93
			c1.59-0.97,3.19-1.94,4.78-2.9c0.12-0.07,0.24-0.18,0.39-0.19c0.07,0,0.09,0,0.06,0.04c-0.06,0.11-0.12,0.21-0.19,0.31
			c-0.53,0.72-1.07,1.43-1.61,2.15c-0.04,0.06-0.07,0.13-0.1,0.2c-0.02,0.06-0.01,0.08,0.05,0.05c0.14-0.06,0.27-0.12,0.4-0.18
			c1.52-0.74,3.04-1.47,4.56-2.22c0.27-0.13,0.54-0.23,0.84-0.28c0.74-0.12,1.47-0.26,2.2-0.39c0.51-0.09,1.03-0.17,1.54-0.26
			c0.02,0,0.04,0.01,0.06,0.02c-0.01,0.02-0.01,0.05-0.02,0.07c-0.09,0.09-0.17,0.18-0.26,0.26c-0.47,0.36-0.95,0.72-1.42,1.08
			c-0.1,0.08-0.19,0.16-0.29,0.24c0.03,0.01,0.05,0.04,0.07,0.03c0.05-0.01,0.1-0.02,0.13-0.04c0.61-0.45,1.31-0.69,2.02-0.91
			c1.43-0.43,2.85-0.88,4.27-1.32c0.29-0.09,0.57-0.16,0.87-0.15c1.29,0.04,2.59,0.06,3.88,0.1c0.07,0,0.15,0.01,0.22,0.02
			c-0.03,0.04-0.04,0.1-0.08,0.11c-0.45,0.16-0.92,0.21-1.39,0.28c-0.5,0.08-0.96,0.23-1.41,0.46c-1.68,0.87-3.36,1.72-5.05,2.57
			c-0.2,0.1-0.41,0.19-0.59,0.4c0.56-0.08,1.06-0.22,1.57-0.34c2.01-0.46,4.02-0.93,6.02-1.4c0.35-0.08,0.68-0.08,1.03,0.02
			c0.69,0.2,1.39,0.38,2.08,0.57c0.03,0.01,0.05,0.07,0.07,0.11c-0.02,0.01-0.05,0.02-0.07,0.02c-0.47-0.01-0.94-0.02-1.41-0.03
			c-0.18,0-0.34,0.02-0.5,0.11c-1.68,0.87-3.36,1.73-5.04,2.59c-0.14,0.03-0.26,0.09-0.3,0.3c0.28-0.18,0.61-0.08,0.85-0.27
			c1.38-0.32,2.76-0.63,4.14-0.96c0.27-0.07,0.53-0.07,0.81-0.03c0.66,0.09,1.33,0.14,2,0.21c0.74,0.08,1.48,0.16,2.22,0.24
			c0.32,0.03,0.64,0.07,0.97,0.09c0.06,0.01,0.08,0.03,0.05,0.1c-0.01,0.02-0.02,0.05-0.04,0.06c-0.04,0.03-0.08,0.06-0.13,0.07
			c-2.29,0.56-4.58,1.12-6.87,1.68c-0.1,0.02-0.2,0.04-0.29,0.07c-0.14,0.05-0.27,0.11-0.38,0.23c-0.99,1.11-1.99,2.22-2.99,3.32
			C156.42,50.84,156.41,50.9,156.39,50.94"/>
		<path class="st13" d="M182.21,72.27c-0.55,0.1-1.17,0.01-1.8-0.06c-0.07-0.01-0.15-0.03-0.22-0.06c-0.28-0.13-0.58-0.25-0.84-0.42
			c-0.23-0.14-0.39-0.35-0.49-0.6c-0.04-0.1-0.08-0.21-0.11-0.32c-0.03-0.18-0.1-0.33-0.29-0.39c-0.09-0.03-0.12-0.12-0.13-0.21
			c-0.02-0.21-0.02-0.42,0.05-0.64c0.09-0.3,0.17-0.6,0.26-0.91c0.08-0.27,0.24-0.46,0.5-0.57c0.2-0.08,0.4-0.16,0.59-0.24
			c0.2,0.07,0.4,0.14,0.6,0.22c0.21,0.08,0.41,0.17,0.65,0.17c0.3-0.01,0.57-0.05,0.82-0.23c0.04-0.03,0.09-0.05,0.13-0.07
			c0.39-0.25,0.82-0.31,1.26-0.32c0.1,0,0.2,0.01,0.3,0.05c0.13,0.05,0.26,0.09,0.39,0.13c0.62,0.2,0.62,0.2,1.11,0.6
			c0.18,0.14,0.32,0.32,0.45,0.5c0.27,0.36,0.63,0.53,1.06,0.55c0.04,0,0.08,0.01,0.11,0.01c0.11,0.02,0.14,0.08,0.1,0.19
			c-0.02,0.06-0.04,0.12-0.07,0.17c-0.2,0.32-0.39,0.64-0.6,0.96c-0.03,0.05-0.09,0.09-0.13,0.13c-0.04,0.03-0.08,0.06-0.12,0.09
			c-0.99,0.69-1.05,0.72-2.16,1.12c-0.13,0.04-0.27,0.07-0.41,0.08C182.92,72.23,182.6,72.25,182.21,72.27 M179.33,70.27
			c0.34,0.1,0.66,0.22,1.01,0.18c0.92-0.09,1.85-0.14,2.78-0.11c0.39,0.01,0.76-0.11,1.14-0.24c-0.08-0.1-0.19-0.11-0.28-0.14
			c-0.32-0.11-0.65-0.19-0.93-0.4c-0.09-0.07-0.2-0.09-0.32-0.09c-0.46-0.01-0.93-0.01-1.39-0.03c-0.37-0.01-0.72,0.07-1.09,0.09
			c-0.1,0.01-0.2,0.04-0.27,0.11C179.77,69.86,179.56,70.05,179.33,70.27 M182.55,70.83c-0.06,0.02-0.15,0.03-0.22,0.07
			c-0.28,0.15-0.29,0.5-0.02,0.66c0.17,0.1,0.4,0.1,0.56-0.01c0.22-0.16,0.22-0.47-0.01-0.63
			C182.77,70.87,182.68,70.84,182.55,70.83"/>
		<path class="st6" d="M170.12,60.3c0.01-0.1,0.02-0.2,0.03-0.3l0.01,0l-0.01-0.01c0.03-0.45,0.07-0.89,0.1-1.34
			c0.03-0.36,0.06-0.72,0.09-1.07c0.04-0.51,0.08-1.01,0.12-1.52c-0.1,0.04-0.12,0.11-0.15,0.18c-0.17,0.37-0.34,0.75-0.51,1.12
			c-0.04,0.09-0.09,0.17-0.14,0.26l0.01,0.01c-0.08-0.15-0.04-0.32-0.02-0.47c0.07-0.78,0.15-1.56,0.23-2.34
			c0.03-0.25,0.08-0.49,0.18-0.72c0.77-1.7,1.52-3.41,2.28-5.12c0.01-0.02,0.02-0.05,0.03-0.07c0.1-0.3,0.31-0.48,0.62-0.59
			c0.57-0.2,1.14-0.44,1.7-0.67c0.11-0.04,0.24-0.06,0.34-0.21c-0.64,0.08-1.25,0.16-1.88,0.24c0.06-0.27,0.22-0.44,0.33-0.64
			c0.07-0.12,0.2-0.15,0.31-0.21c0.59-0.3,1.18-0.59,1.77-0.89c0.1-0.05,0.21-0.07,0.29-0.2c-0.46-0.05-0.89,0.09-1.33,0.05
			c0.04-0.1,0.12-0.09,0.19-0.11c0.75-0.25,1.51-0.5,2.27-0.76c0.11-0.04,0.25-0.04,0.34-0.18c-0.42-0.09-0.84-0.17-1.26-0.26
			c0.07-0.07,0.15-0.09,0.24-0.11c1.19-0.21,2.38-0.41,3.56-0.62c0.09-0.01,0.17-0.02,0.24-0.12c-0.42-0.13-0.84-0.26-1.25-0.39
			c-0.12-0.04-0.24-0.07-0.36-0.11c-0.02-0.01-0.03-0.04-0.03-0.05c-0.01-0.03,0.01-0.05,0.04-0.05c0.06,0,0.12-0.01,0.19-0.02
			c0.83-0.06,1.66-0.13,2.49-0.19c0.65-0.05,1.29-0.08,1.94-0.13c0.38-0.03,0.76-0.06,1.14-0.09c0.02-0.11-0.06-0.11-0.11-0.13
			c-0.6-0.25-1.2-0.49-1.8-0.74c-0.12-0.05-0.25-0.08-0.39-0.2c0.65-0.05,1.25,0.07,1.86,0.05c0.6-0.01,1.2,0.08,1.81,0.03
			c-0.28-0.19-0.6-0.28-0.91-0.41c-0.31-0.13-0.61-0.25-0.91-0.42c0.71,0.12,1.43,0.24,2.14,0.36c0.76,0.13,1.52,0.28,2.27,0.41
			c0.92,0.16,1.84,0.32,2.76,0.48c0.05,0.01,0.1,0.02,0.15,0.02c0.02,0,0.05-0.02,0.05-0.04c0-0.02-0.01-0.05-0.02-0.06
			c-0.07-0.05-0.14-0.1-0.22-0.14c-0.2-0.12-0.41-0.24-0.61-0.37c-0.06-0.04-0.12-0.08-0.19-0.12c0.07-0.07,0.12-0.03,0.18-0.01
			c0.85,0.23,1.7,0.46,2.56,0.69c0.3,0.08,0.29,0.13,0.46-0.2c0.15-0.3,0.31-0.6,0.45-0.9c0.11-0.24,0.25-0.45,0.43-0.65
			c1.01-1.19,2.02-2.37,3.02-3.57c0.13-0.16,0.28-0.28,0.46-0.37c0.94-0.46,1.88-0.92,2.81-1.39c0.18-0.09,0.36-0.13,0.57-0.12
			c1.04,0.07,2.09,0.14,3.13,0.2c0.38,0.02,0.74,0.08,1.1,0.2c0.92,0.31,1.85,0.59,2.78,0.88c0.2,0.06,0.36,0.16,0.49,0.31
			c0.68,0.78,1.37,1.55,2.06,2.32c0.2,0.23,0.34,0.49,0.51,0.74c0.38,0.58,0.75,1.18,1.13,1.76c0.13,0.2,0.22,0.41,0.26,0.65
			c0.24,1.14,0.49,2.29,0.74,3.43c0.01,0.06,0.03,0.12,0.03,0.18c0.01,0.06-0.02,0.09-0.07,0.11c-0.05,0.02-0.1,0.01-0.13-0.03
			c-0.05-0.06-0.09-0.12-0.14-0.18c-0.27-0.37-0.55-0.74-0.82-1.11c-0.1-0.13-0.2-0.25-0.32-0.37c0.15,0.33,0.29,0.66,0.44,0.99
			c0.3,0.68,0.3,0.68,0.39,1.43c0.06,0.47,0.12,0.94,0.18,1.41c0.01,0.06,0,0.12,0,0.18c0,0.03-0.02,0.04-0.05,0.04
			c-0.03,0-0.05,0-0.06-0.03c-0.04-0.08-0.09-0.15-0.13-0.23c-0.19-0.36-0.38-0.73-0.58-1.09c-0.02-0.03-0.04-0.07-0.06-0.09
			c-0.01-0.02-0.04-0.02-0.06-0.02c-0.03,0-0.04,0.01-0.05,0.04c-0.11,0.47-0.21,0.95-0.33,1.42c-0.05,0.19-0.06,0.39-0.18,0.6
			c-0.07-0.19-0.14-0.33-0.19-0.48c-0.21-0.55-0.41-1.1-0.62-1.64c-0.03-0.08-0.07-0.16-0.11-0.23c0-0.01-0.06,0-0.06,0
			c-0.01,0.04-0.01,0.07-0.02,0.11c-0.06,0.53-0.12,1.07-0.18,1.6c-0.11-0.01-0.1-0.09-0.11-0.16c-0.13-0.63-0.25-1.27-0.38-1.9
			c-0.02-0.12-0.02-0.25-0.13-0.36c-0.12,0.44-0.22,0.86-0.34,1.27c-0.04,0.12,0,0.28-0.14,0.35c-0.09-0.1-0.07-0.23-0.1-0.34
			c-0.06-0.18-0.08-0.36-0.14-0.61c-0.11,0.35-0.1,0.65-0.14,0.98c-0.15-0.15-0.15-0.31-0.2-0.44c-0.05-0.13-0.07-0.26-0.17-0.38
			c-0.08,0.05-0.06,0.13-0.08,0.19c-0.02,0.07-0.03,0.15-0.04,0.22c-0.01,0.07-0.01,0.15-0.02,0.22c-0.01,0.07-0.02,0.15-0.04,0.22
			c-0.02,0.07-0.04,0.14-0.06,0.22c-0.02,0.07-0.04,0.14-0.06,0.22c-0.02,0.07-0.04,0.14-0.07,0.21c-0.02,0.07-0.05,0.14-0.11,0.28
			c-0.03-0.32-0.06-0.54-0.08-0.77c0-0.02-0.01-0.08-0.06-0.06c-0.02,0.01-0.04,0.04-0.04,0.06c-0.03,0.34-0.15,0.65-0.27,0.97
			c-0.02,0.04-0.02,0.1-0.09,0.11c-0.06-0.16-0.05-0.34-0.07-0.51c-0.05-0.73-0.1-1.47-0.14-2.2c-0.01-0.16-0.04-0.32-0.09-0.48
			c-0.26-0.8-0.52-1.61-0.78-2.42c-0.04-0.12-0.1-0.22-0.18-0.32c-0.49-0.55-0.98-1.1-1.46-1.66c-0.11-0.12-0.23-0.18-0.38-0.21
			c-1.23-0.22-2.45-0.45-3.68-0.67c-0.12-0.02-0.25-0.02-0.37-0.02c-0.46,0.03-0.92,0.07-1.38,0.09c-0.17,0.01-0.31,0.06-0.46,0.15
			c-0.6,0.36-1.2,0.71-1.8,1.07c-0.06,0.04-0.13,0.08-0.19,0.12c-0.05,0.04-0.08,0.09-0.08,0.16c0,0.26,0,0.52-0.01,0.79
			c0,0.12,0.07,0.18,0.15,0.24c0.42,0.31,0.85,0.61,1.27,0.92c1.57,1.14,3.14,2.29,4.72,3.43c0.17,0.13,0.32,0.27,0.44,0.45
			c1.27,1.79,2.54,3.58,3.81,5.36c0.14,0.2,0.24,0.4,0.3,0.63c0.24,0.88,0.48,1.75,0.73,2.62c0.05,0.16,0.06,0.29-0.07,0.41
			c-0.11,0.1-0.09,0.22-0.06,0.35c0.11,0.4,0.21,0.79,0.32,1.19c0.05,0.18,0.07,0.36,0.05,0.55c-0.05,0.5-0.09,0.99-0.14,1.49
			c-0.01,0.02-0.02,0.05-0.02,0.07c-0.11,1.09-0.21,2.18-0.32,3.26c-0.08,0.83-0.17,1.65-0.25,2.48c-0.01,0.08-0.01,0.15,0.02,0.22
			c0.16,0.42,0.29,0.85,0.49,1.25c0.12,0.34,0.23,0.68,0.36,1.01c0.08,0.2,0.12,0.4,0.13,0.61c0.03,0.37,0.03,0.74,0.03,1.1
			c-0.03,0.01-0.05,0.02-0.06,0.01c-0.01,0-0.01-0.02-0.02-0.03l-0.64-1.54c-0.01-0.01-0.01-0.02-0.02-0.03
			c-0.04-0.1-0.07-0.21-0.12-0.31c-0.05-0.11-0.06-0.24-0.19-0.32c-0.07,0.48-0.09,0.93-0.12,1.39c0,0.06,0.02,0.15-0.11,0.18
			c-0.09-0.18-0.19-0.37-0.29-0.55c-0.22-0.43-0.44-0.86-0.66-1.29c-0.13-0.28-0.27-0.56-0.4-0.84c-0.08-0.18-0.2-0.31-0.36-0.41
			c-0.31-0.21-0.61-0.43-0.92-0.64c-0.53-0.37-1.06-0.74-1.59-1.11c-0.33-0.23-0.3-0.21-0.44,0.15c-0.13,0.35-0.26,0.7-0.38,1.05
			c-0.31,0.92-0.7,1.81-1.19,2.65c-0.03,0.05-0.06,0.11-0.09,0.16c-0.03,0.05-0.09,0.05-0.12,0.01c-0.02-0.02-0.03-0.04-0.04-0.06
			c-0.74-1.18-1.48-2.37-2.21-3.55c-0.08-0.12-0.11-0.25-0.14-0.38c-0.1-0.56-0.22-1.12-0.33-1.68c-0.21-1.08-0.43-2.17-0.65-3.25
			c-0.01-0.06,0.02-0.15-0.09-0.19c-0.15,0.4-0.25,0.81-0.38,1.21c-0.13,0.4-0.22,0.81-0.41,1.27c-0.32-1.46-0.63-2.85-0.95-4.28
			c-0.04,0.07-0.07,0.1-0.07,0.13c-0.07,0.46-0.13,0.91-0.19,1.37c-0.01,0.08,0.04,0.2-0.08,0.22c-0.08,0.01-0.11-0.09-0.14-0.15
			c-0.13-0.2-0.26-0.4-0.4-0.59c-0.11-0.16-0.2-0.34-0.35-0.48c-0.01-0.07-0.04-0.13-0.09-0.18c-0.51-0.77-1.03-1.55-1.54-2.32
			c-0.01-0.02-0.02-0.04-0.04-0.06c-0.02-0.01-0.04-0.02-0.06-0.02c-0.03,0-0.04,0.02-0.04,0.05c-0.01,0.52-0.04,1.04-0.01,1.56
			c-0.03,0.09-0.02,0.19-0.01,0.28c-0.06,0.41-0.05,0.82-0.07,1.23c0,0.06,0.02,0.13-0.07,0.15c-0.03-0.03-0.07-0.07-0.1-0.1
			c-0.34-0.43-0.68-0.86-1.02-1.29c-0.15-0.18-0.27-0.39-0.46-0.54c-0.14-0.23-0.31-0.45-0.5-0.63c-0.02-0.03-0.03-0.07-0.05-0.1
			c-0.35-0.45-0.71-0.89-1.07-1.34c-0.03-0.03-0.04-0.1-0.13-0.07c0.09,0.52,0.19,1.03,0.33,1.54c0.01,0.22,0.06,0.43,0.14,0.64
			c0.01,0.12,0.02,0.24,0.05,0.37c0.07,0.32,0.14,0.65,0.2,0.98c0.01,0.05,0.04,0.12-0.06,0.16c-0.07-0.07-0.15-0.15-0.22-0.23
			c-0.32-0.33-0.63-0.66-0.95-0.99c-0.09-0.1-0.2-0.18-0.3-0.27c-0.18-0.23-0.37-0.44-0.6-0.63c-0.04-0.05-0.07-0.1-0.11-0.15
			c-0.63-0.66-1.26-1.31-1.89-1.96c-0.04-0.04-0.07-0.1-0.14-0.08c-0.02,0.07,0.01,0.12,0.03,0.18c0.15,0.39,0.31,0.79,0.46,1.18
			c0.16,0.4,0.29,0.82,0.48,1.21c0.03,0.11,0.07,0.22,0.1,0.33c0.03,0.08,0.07,0.15,0.05,0.24l-0.02,0.02
			c-0.11-0.02-0.17-0.12-0.26-0.19c-0.1-0.07-0.16-0.18-0.28-0.22c-0.03-0.09-0.1-0.14-0.16-0.2c-0.94-0.87-1.88-1.75-2.81-2.62
			c-0.04-0.03-0.08-0.05-0.18-0.12c0.1,0.24,0.17,0.42,0.25,0.6c0.08,0.18,0.16,0.37,0.23,0.55c0.08,0.18,0.16,0.37,0.23,0.55
			c0.08,0.18,0.16,0.36,0.23,0.55c0.07,0.18,0.17,0.35,0.21,0.54c-0.08,0.03-0.12-0.01-0.15-0.04c-0.98-0.66-1.96-1.32-2.94-1.98
			c-0.12-0.08-0.2-0.18-0.28-0.3c-0.35-0.53-0.71-1.05-1.07-1.57c-0.07-0.1-0.15-0.19-0.23-0.29c-0.26-0.46-0.56-0.88-0.77-1.07
			c-0.39,0.4-0.74,0.83-1.11,1.25c-0.38,0.43-0.76,0.86-1.13,1.29c-0.37,0.42-0.73,0.85-1.1,1.27c-0.38,0.42-0.73,0.87-1.18,1.32
			c0.12-0.64,0.29-1.2,0.38-1.77c-0.11-0.04-0.16,0.03-0.22,0.08c-0.23,0.19-0.46,0.38-0.69,0.57c-0.69,0.57-1.38,1.14-2.07,1.72
			c-0.1,0.08-0.16,0.17-0.19,0.31c-0.05,0.29-0.13,0.58-0.19,0.87c-0.24,1.11-0.47,2.21-0.71,3.32c-0.02,0.09-0.01,0.2-0.11,0.26
			c-0.06-0.13-0.01-0.25-0.01-0.37C170.07,61.12,170.09,60.71,170.12,60.3"/>
		<g class="st3">
			<g>
				<defs>
					<rect id="SVGID_00000073694900652085710830000012665193360017918355_" x="160.73" y="86.11" width="41.91" height="17.05"/>
				</defs>
				<clipPath id="SVGID_00000131357000694217303490000010035760387433638557_">
					<use xlink:href="#SVGID_00000073694900652085710830000012665193360017918355_"  style="overflow:visible;"/>
				</clipPath>
				<polygon style="clip-path:url(#SVGID_00000131357000694217303490000010035760387433638557_);fill:#010101;" points="
					197.85,98.75 191.82,92.38 196.82,90.32 202.38,90.32 202.38,85.99 183.06,85.99 183.06,90.32 188.56,90.32 178.59,94.69 
					178.59,90.32 182.28,90.32 182.28,85.99 161.58,85.99 161.58,90.32 167.03,90.32 167.03,98.75 161.58,98.75 161.58,103.08 
					180.15,103.08 180.15,98.75 178.59,98.75 178.59,97.83 181.17,96.77 182.95,98.75 180.97,98.75 180.97,103.08 203.48,103.08 
					203.48,98.75 				"/>
			</g>
		</g>
	</g>
</g>
<g id="Platforma">
	<path class="st13" d="M246.53,131.46c-0.2-0.59-0.48-1.1-0.85-1.55c-0.37-0.44-0.81-0.82-1.34-1.12c-0.53-0.3-1.04-0.51-1.55-0.62
		c-0.51-0.11-0.95-0.18-1.32-0.22c-0.37-0.03-0.76-0.05-1.17-0.05h-4.02c-0.25,0-0.48,0.08-0.68,0.25c-0.2,0.16-0.3,0.44-0.3,0.83
		v17.32c0,0.08,0.02,0.15,0.06,0.2c0.04,0.06,0.11,0.1,0.2,0.14c0.1,0.03,0.22,0.06,0.38,0.09c0.16,0.02,0.36,0.04,0.6,0.04
		c0.24,0,0.44-0.01,0.6-0.04c0.16-0.02,0.29-0.05,0.38-0.09c0.09-0.03,0.16-0.08,0.2-0.14c0.04-0.06,0.07-0.13,0.07-0.2v-6.76h2.13
		c1.16,0,2.16-0.15,3-0.44c0.84-0.29,1.54-0.7,2.12-1.23c0.58-0.53,1.02-1.18,1.33-1.93c0.31-0.75,0.46-1.6,0.46-2.54
		C246.83,132.69,246.73,132.05,246.53,131.46z M243.94,135.16c-0.17,0.48-0.43,0.89-0.77,1.23c-0.34,0.34-0.76,0.61-1.25,0.81
		c-0.5,0.19-1.12,0.29-1.88,0.29h-2.25v-7.53h2.31c0.43,0,0.86,0.03,1.31,0.1c0.45,0.07,0.88,0.23,1.31,0.48
		c0.42,0.25,0.77,0.63,1.06,1.15c0.29,0.51,0.43,1.15,0.43,1.91C244.2,134.16,244.12,134.68,243.94,135.16z"/>
	<path class="st13" d="M264.69,145.09c-0.02-0.14-0.05-0.24-0.09-0.33c-0.04-0.08-0.1-0.15-0.16-0.19
		c-0.06-0.04-0.14-0.07-0.22-0.07h-6.73v-16.23c0-0.08-0.02-0.15-0.06-0.2c-0.04-0.06-0.11-0.1-0.2-0.14
		c-0.1-0.03-0.22-0.06-0.38-0.09c-0.16-0.02-0.36-0.04-0.6-0.04c-0.23,0-0.43,0.01-0.59,0.04c-0.16,0.02-0.3,0.05-0.39,0.09
		c-0.1,0.03-0.16,0.08-0.2,0.14c-0.04,0.06-0.06,0.13-0.06,0.2v17.38c0,0.38,0.1,0.64,0.3,0.79c0.2,0.15,0.41,0.22,0.63,0.22h8.3
		c0.09,0,0.16-0.02,0.22-0.07c0.06-0.04,0.12-0.11,0.16-0.2c0.04-0.09,0.07-0.2,0.09-0.33c0.02-0.13,0.03-0.29,0.03-0.49
		C264.72,145.39,264.71,145.23,264.69,145.09z"/>
	<path class="st13" d="M279.57,128.35c-0.04-0.11-0.09-0.2-0.16-0.27c-0.07-0.07-0.16-0.13-0.29-0.17
		c-0.13-0.04-0.29-0.07-0.49-0.08c-0.2-0.01-0.46-0.02-0.77-0.02c-0.29,0-0.53,0.01-0.72,0.02c-0.19,0.01-0.34,0.04-0.46,0.08
		c-0.12,0.04-0.21,0.09-0.28,0.16c-0.06,0.07-0.11,0.15-0.15,0.26l-6.3,17.44c-0.08,0.21-0.12,0.38-0.12,0.52
		c-0.01,0.13,0.03,0.23,0.1,0.3c0.07,0.07,0.2,0.11,0.38,0.14c0.18,0.02,0.41,0.04,0.69,0.04c0.27,0,0.49-0.01,0.66-0.03
		c0.17-0.02,0.3-0.05,0.39-0.09c0.09-0.04,0.16-0.1,0.21-0.16c0.05-0.06,0.09-0.14,0.12-0.22l1.54-4.51h7.81l1.61,4.57
		c0.04,0.09,0.08,0.16,0.12,0.22c0.04,0.06,0.11,0.1,0.2,0.14c0.09,0.03,0.23,0.06,0.41,0.07c0.18,0.01,0.42,0.02,0.72,0.02
		c0.3,0,0.54-0.01,0.72-0.03c0.18-0.02,0.31-0.06,0.38-0.13c0.08-0.07,0.11-0.17,0.11-0.3c0-0.13-0.05-0.3-0.12-0.52L279.57,128.35z
		 M281.07,139.75h-6.53l3.24-9.36h0.01L281.07,139.75z"/>
	<path class="st13" d="M302.76,128.49c-0.02-0.14-0.05-0.25-0.09-0.34c-0.04-0.09-0.1-0.15-0.16-0.19
		c-0.06-0.04-0.13-0.06-0.21-0.06h-13.06c-0.08,0-0.15,0.02-0.21,0.06c-0.06,0.04-0.11,0.1-0.15,0.19c-0.04,0.09-0.07,0.2-0.09,0.34
		c-0.02,0.14-0.04,0.3-0.04,0.49c0,0.18,0.01,0.34,0.04,0.48c0.02,0.14,0.06,0.24,0.09,0.33c0.04,0.08,0.09,0.14,0.15,0.18
		c0.06,0.04,0.13,0.06,0.21,0.06h5.28v16.28c0,0.08,0.02,0.15,0.06,0.2c0.04,0.06,0.11,0.1,0.2,0.14c0.1,0.03,0.23,0.06,0.39,0.09
		c0.16,0.02,0.36,0.04,0.59,0.04c0.24,0,0.44-0.01,0.6-0.04c0.16-0.02,0.29-0.05,0.38-0.09c0.1-0.03,0.16-0.08,0.2-0.14
		c0.04-0.06,0.06-0.13,0.06-0.2v-16.28h5.28c0.08,0,0.15-0.02,0.21-0.06c0.06-0.04,0.12-0.1,0.16-0.18
		c0.04-0.08,0.07-0.19,0.09-0.33c0.02-0.14,0.03-0.29,0.03-0.48C302.79,128.79,302.78,128.63,302.76,128.49z"/>
	<path class="st13" d="M319.67,128.49c-0.02-0.14-0.05-0.25-0.1-0.34c-0.05-0.09-0.1-0.15-0.17-0.19c-0.06-0.04-0.13-0.06-0.2-0.06
		h-8.44c-0.22,0-0.43,0.08-0.63,0.22c-0.2,0.15-0.3,0.41-0.3,0.79v17.38c0,0.07,0.02,0.13,0.06,0.2c0.04,0.06,0.11,0.11,0.2,0.15
		c0.1,0.03,0.23,0.06,0.39,0.09c0.16,0.02,0.36,0.04,0.59,0.04c0.25,0,0.45-0.01,0.61-0.04c0.15-0.02,0.28-0.05,0.38-0.09
		c0.1-0.03,0.16-0.08,0.2-0.15c0.04-0.06,0.06-0.13,0.06-0.2v-7.82h6.5c0.07,0,0.13-0.02,0.2-0.07c0.06-0.04,0.12-0.11,0.17-0.19
		c0.05-0.08,0.08-0.19,0.1-0.32c0.02-0.13,0.03-0.29,0.03-0.47c0-0.2-0.01-0.37-0.03-0.5c-0.02-0.13-0.05-0.23-0.1-0.31
		c-0.05-0.08-0.1-0.13-0.17-0.17c-0.06-0.03-0.13-0.05-0.2-0.05h-6.5v-6.38h6.88c0.07,0,0.13-0.02,0.2-0.06
		c0.06-0.04,0.12-0.1,0.17-0.18c0.05-0.08,0.08-0.19,0.1-0.33c0.02-0.14,0.03-0.29,0.03-0.48
		C319.7,128.79,319.69,128.63,319.67,128.49z"/>
	<path class="st13" d="M342.79,133.03c-0.33-1.18-0.84-2.16-1.52-2.96c-0.68-0.8-1.54-1.4-2.56-1.82c-1.03-0.42-2.23-0.62-3.61-0.62
		c-1.43,0-2.68,0.23-3.76,0.69c-1.07,0.46-1.97,1.11-2.68,1.96c-0.72,0.85-1.25,1.87-1.61,3.08c-0.36,1.21-0.54,2.55-0.54,4.03
		c0,1.55,0.16,2.92,0.49,4.11c0.33,1.19,0.83,2.19,1.5,2.99c0.67,0.8,1.52,1.41,2.55,1.84c1.03,0.42,2.25,0.63,3.66,0.63
		c1.43,0,2.68-0.23,3.76-0.69c1.07-0.46,1.97-1.12,2.68-1.97c0.71-0.86,1.25-1.89,1.6-3.11c0.36-1.22,0.54-2.59,0.54-4.11
		C343.29,135.55,343.12,134.2,342.79,133.03z M340.36,140.13c-0.19,0.91-0.52,1.71-0.97,2.4c-0.45,0.69-1.05,1.24-1.8,1.65
		c-0.74,0.41-1.66,0.61-2.75,0.61c-1.1,0-2.02-0.19-2.75-0.56c-0.73-0.37-1.31-0.89-1.75-1.57c-0.43-0.67-0.74-1.47-0.93-2.4
		c-0.18-0.93-0.28-1.94-0.28-3.05c0-1,0.1-1.95,0.3-2.85c0.2-0.9,0.53-1.69,0.99-2.37c0.46-0.68,1.06-1.22,1.79-1.62
		c0.73-0.41,1.64-0.61,2.72-0.61c1.08,0,1.99,0.19,2.72,0.57c0.73,0.38,1.32,0.9,1.76,1.57c0.44,0.67,0.75,1.47,0.94,2.38
		c0.19,0.91,0.28,1.9,0.28,2.97C340.65,138.26,340.55,139.22,340.36,140.13z"/>
	<path class="st13" d="M364.04,145.97c-0.04-0.14-0.13-0.38-0.26-0.73l-1.68-4.13c-0.19-0.47-0.39-0.9-0.58-1.28
		c-0.19-0.38-0.4-0.71-0.62-1c-0.22-0.29-0.45-0.54-0.7-0.75c-0.25-0.21-0.53-0.38-0.84-0.52c0.55-0.19,1.05-0.43,1.49-0.71
		c0.44-0.28,0.83-0.61,1.15-0.99c0.32-0.38,0.56-0.82,0.73-1.32c0.17-0.5,0.25-1.06,0.25-1.69c0-0.65-0.09-1.24-0.28-1.78
		c-0.19-0.54-0.47-1.01-0.85-1.43c-0.38-0.42-0.84-0.76-1.4-1.03c-0.56-0.27-1.2-0.47-1.92-0.59c-0.25-0.03-0.53-0.06-0.85-0.08
		c-0.31-0.02-0.71-0.04-1.18-0.04h-3.99c-0.22,0-0.43,0.08-0.63,0.22c-0.2,0.15-0.3,0.41-0.3,0.79v17.38c0,0.08,0.02,0.15,0.06,0.2
		c0.04,0.06,0.11,0.1,0.2,0.14c0.1,0.03,0.22,0.06,0.38,0.09c0.16,0.02,0.36,0.04,0.6,0.04c0.24,0,0.44-0.01,0.6-0.04
		c0.16-0.02,0.29-0.05,0.38-0.09c0.09-0.03,0.16-0.08,0.2-0.14c0.04-0.06,0.07-0.13,0.07-0.2v-7.99h1.67c0.57,0,1.06,0.08,1.47,0.25
		c0.41,0.17,0.76,0.41,1.06,0.71c0.3,0.3,0.56,0.67,0.78,1.09c0.22,0.42,0.43,0.88,0.63,1.39l1.73,4.42
		c0.04,0.12,0.08,0.21,0.14,0.29c0.05,0.08,0.13,0.14,0.22,0.18c0.1,0.04,0.22,0.07,0.38,0.09c0.16,0.02,0.36,0.03,0.62,0.03
		c0.29,0,0.52-0.01,0.7-0.03c0.17-0.02,0.31-0.05,0.41-0.09c0.1-0.04,0.16-0.09,0.19-0.15c0.03-0.06,0.04-0.13,0.04-0.2
		C364.09,146.22,364.08,146.11,364.04,145.97z M360.11,134.37c-0.15,0.39-0.38,0.72-0.7,1.01c-0.32,0.29-0.72,0.51-1.2,0.67
		c-0.48,0.16-1.05,0.24-1.7,0.24h-2.44v-6.33h2.1c0.49,0,0.89,0.01,1.2,0.04c0.3,0.03,0.58,0.08,0.82,0.15
		c0.77,0.22,1.32,0.59,1.65,1.1c0.33,0.51,0.49,1.13,0.49,1.86C360.34,133.56,360.26,133.98,360.11,134.37z"/>
	<path class="st13" d="M392.46,129.03c0-0.2-0.03-0.37-0.09-0.52c-0.06-0.14-0.14-0.26-0.23-0.35c-0.09-0.09-0.21-0.16-0.34-0.2
		c-0.13-0.04-0.27-0.07-0.42-0.07h-1.61c-0.25,0-0.46,0.03-0.65,0.08c-0.19,0.05-0.36,0.14-0.51,0.26
		c-0.15,0.12-0.29,0.28-0.42,0.49c-0.13,0.2-0.25,0.45-0.35,0.74l-5.59,13.55h-0.07l-5.37-13.59c-0.09-0.26-0.19-0.49-0.31-0.68
		c-0.12-0.19-0.27-0.35-0.44-0.48c-0.18-0.13-0.38-0.22-0.62-0.28c-0.24-0.06-0.51-0.09-0.82-0.09h-1.53
		c-0.27,0-0.51,0.09-0.72,0.26c-0.22,0.17-0.32,0.46-0.32,0.87v17.26c0,0.08,0.02,0.15,0.05,0.2c0.03,0.06,0.1,0.1,0.19,0.14
		c0.09,0.03,0.22,0.06,0.38,0.09c0.16,0.02,0.36,0.04,0.6,0.04c0.25,0,0.45-0.01,0.61-0.04c0.16-0.02,0.29-0.05,0.39-0.09
		c0.1-0.03,0.17-0.08,0.21-0.14c0.04-0.06,0.06-0.13,0.06-0.2v-16.35h0.01l6.33,16.42c0.02,0.06,0.06,0.11,0.11,0.16
		c0.05,0.05,0.13,0.09,0.22,0.12c0.1,0.03,0.22,0.06,0.36,0.08c0.15,0.02,0.32,0.03,0.52,0.03c0.19,0,0.36-0.01,0.5-0.02
		c0.14-0.01,0.26-0.04,0.36-0.07c0.1-0.03,0.18-0.07,0.23-0.12c0.05-0.05,0.09-0.11,0.12-0.17l6.62-16.42h0.03v16.35
		c0,0.08,0.02,0.15,0.06,0.2c0.04,0.06,0.11,0.1,0.2,0.14c0.09,0.03,0.22,0.06,0.39,0.09c0.16,0.02,0.36,0.04,0.59,0.04
		c0.25,0,0.45-0.01,0.61-0.04c0.15-0.02,0.28-0.05,0.38-0.09c0.1-0.03,0.17-0.08,0.21-0.14c0.04-0.06,0.06-0.13,0.06-0.2V129.03z"/>
	<path class="st13" d="M409.55,128.35c-0.04-0.11-0.09-0.2-0.16-0.27c-0.07-0.07-0.16-0.13-0.29-0.17
		c-0.13-0.04-0.29-0.07-0.49-0.08c-0.2-0.01-0.46-0.02-0.77-0.02c-0.29,0-0.53,0.01-0.72,0.02c-0.19,0.01-0.34,0.04-0.46,0.08
		c-0.12,0.04-0.21,0.09-0.28,0.16c-0.06,0.07-0.11,0.15-0.15,0.26l-6.3,17.44c-0.08,0.21-0.12,0.38-0.12,0.52
		c0,0.13,0.03,0.23,0.1,0.3c0.07,0.07,0.2,0.11,0.38,0.14c0.18,0.02,0.41,0.04,0.69,0.04c0.27,0,0.49-0.01,0.66-0.03
		c0.17-0.02,0.3-0.05,0.39-0.09c0.09-0.04,0.16-0.1,0.21-0.16c0.05-0.06,0.09-0.14,0.12-0.22l1.54-4.51h7.8l1.61,4.57
		c0.04,0.09,0.08,0.16,0.12,0.22c0.04,0.06,0.11,0.1,0.2,0.14c0.09,0.03,0.23,0.06,0.41,0.07c0.18,0.01,0.42,0.02,0.72,0.02
		c0.3,0,0.54-0.01,0.72-0.03c0.18-0.02,0.31-0.06,0.38-0.13c0.08-0.07,0.11-0.17,0.11-0.3c0-0.13-0.05-0.3-0.12-0.52L409.55,128.35z
		 M411.04,139.75h-6.53l3.24-9.36h0.01L411.04,139.75z"/>
	<path class="st13" d="M445.6,131.46c-0.2-0.59-0.48-1.1-0.85-1.55c-0.37-0.44-0.81-0.82-1.34-1.12c-0.53-0.3-1.04-0.51-1.55-0.62
		c-0.51-0.11-0.95-0.18-1.32-0.22c-0.37-0.03-0.76-0.05-1.17-0.05h-4.02c-0.25,0-0.48,0.08-0.68,0.25c-0.2,0.16-0.3,0.44-0.3,0.83
		v17.32c0,0.08,0.02,0.15,0.06,0.2c0.04,0.06,0.11,0.1,0.2,0.14c0.1,0.03,0.22,0.06,0.38,0.09c0.16,0.02,0.36,0.04,0.6,0.04
		c0.24,0,0.44-0.01,0.6-0.04c0.16-0.02,0.29-0.05,0.38-0.09c0.09-0.03,0.16-0.08,0.2-0.14c0.04-0.06,0.07-0.13,0.07-0.2v-6.76H439
		c1.16,0,2.16-0.15,3-0.44c0.84-0.29,1.54-0.7,2.12-1.23c0.58-0.53,1.02-1.18,1.33-1.93c0.31-0.75,0.46-1.6,0.46-2.54
		C445.9,132.69,445.8,132.05,445.6,131.46z M443.02,135.16c-0.17,0.48-0.43,0.89-0.77,1.23c-0.34,0.34-0.76,0.61-1.25,0.81
		c-0.5,0.19-1.12,0.29-1.88,0.29h-2.25v-7.53h2.31c0.43,0,0.86,0.03,1.31,0.1c0.45,0.07,0.88,0.23,1.31,0.48
		c0.42,0.25,0.77,0.63,1.06,1.15c0.29,0.51,0.43,1.15,0.43,1.91C443.28,134.16,443.19,134.68,443.02,135.16z"/>
	<path class="st13" d="M466.52,145.97c-0.04-0.14-0.13-0.38-0.26-0.73l-1.68-4.13c-0.19-0.47-0.39-0.9-0.58-1.28
		c-0.19-0.38-0.4-0.71-0.62-1c-0.22-0.29-0.45-0.54-0.7-0.75c-0.25-0.21-0.53-0.38-0.84-0.52c0.55-0.19,1.05-0.43,1.49-0.71
		c0.44-0.28,0.83-0.61,1.15-0.99c0.32-0.38,0.56-0.82,0.73-1.32c0.17-0.5,0.25-1.06,0.25-1.69c0-0.65-0.09-1.24-0.28-1.78
		c-0.19-0.54-0.47-1.01-0.85-1.43c-0.38-0.42-0.84-0.76-1.4-1.03c-0.56-0.27-1.2-0.47-1.92-0.59c-0.25-0.03-0.53-0.06-0.85-0.08
		c-0.31-0.02-0.71-0.04-1.18-0.04h-3.99c-0.22,0-0.43,0.08-0.63,0.22c-0.2,0.15-0.3,0.41-0.3,0.79v17.38c0,0.08,0.02,0.15,0.06,0.2
		c0.04,0.06,0.11,0.1,0.2,0.14c0.1,0.03,0.22,0.06,0.38,0.09c0.16,0.02,0.36,0.04,0.6,0.04c0.24,0,0.44-0.01,0.6-0.04
		c0.16-0.02,0.29-0.05,0.38-0.09c0.09-0.03,0.16-0.08,0.2-0.14c0.04-0.06,0.07-0.13,0.07-0.2v-7.99h1.67c0.57,0,1.06,0.08,1.47,0.25
		c0.41,0.17,0.76,0.41,1.06,0.71c0.3,0.3,0.56,0.67,0.78,1.09c0.22,0.42,0.43,0.88,0.63,1.39l1.73,4.42
		c0.04,0.12,0.08,0.21,0.14,0.29c0.05,0.08,0.13,0.14,0.22,0.18c0.1,0.04,0.22,0.07,0.38,0.09c0.16,0.02,0.36,0.03,0.62,0.03
		c0.29,0,0.52-0.01,0.7-0.03c0.17-0.02,0.31-0.05,0.41-0.09c0.1-0.04,0.16-0.09,0.19-0.15c0.03-0.06,0.04-0.13,0.04-0.2
		C466.58,146.22,466.56,146.11,466.52,145.97z M462.59,134.37c-0.15,0.39-0.38,0.72-0.7,1.01c-0.32,0.29-0.72,0.51-1.2,0.67
		c-0.48,0.16-1.05,0.24-1.7,0.24h-2.44v-6.33h2.1c0.49,0,0.89,0.01,1.2,0.04c0.3,0.03,0.58,0.08,0.82,0.15
		c0.77,0.22,1.32,0.59,1.65,1.1c0.33,0.51,0.49,1.13,0.49,1.86C462.82,133.56,462.74,133.98,462.59,134.37z"/>
	<path class="st13" d="M489.46,133.03c-0.33-1.18-0.84-2.16-1.52-2.96c-0.68-0.8-1.54-1.4-2.56-1.82c-1.03-0.42-2.23-0.62-3.61-0.62
		c-1.43,0-2.68,0.23-3.76,0.69c-1.07,0.46-1.97,1.11-2.68,1.96c-0.72,0.85-1.25,1.87-1.61,3.08c-0.36,1.21-0.54,2.55-0.54,4.03
		c0,1.55,0.16,2.92,0.49,4.11c0.33,1.19,0.83,2.19,1.5,2.99c0.67,0.8,1.52,1.41,2.55,1.84c1.03,0.42,2.25,0.63,3.66,0.63
		c1.43,0,2.68-0.23,3.76-0.69c1.07-0.46,1.97-1.12,2.68-1.97c0.71-0.86,1.25-1.89,1.6-3.11c0.36-1.22,0.54-2.59,0.54-4.11
		C489.96,135.55,489.79,134.2,489.46,133.03z M487.03,140.13c-0.19,0.91-0.52,1.71-0.97,2.4c-0.45,0.69-1.05,1.24-1.8,1.65
		c-0.74,0.41-1.66,0.61-2.75,0.61c-1.1,0-2.02-0.19-2.75-0.56c-0.73-0.37-1.31-0.89-1.75-1.57c-0.43-0.67-0.74-1.47-0.93-2.4
		c-0.18-0.93-0.28-1.94-0.28-3.05c0-1,0.1-1.95,0.3-2.85c0.2-0.9,0.53-1.69,0.99-2.37c0.46-0.68,1.06-1.22,1.79-1.62
		c0.73-0.41,1.64-0.61,2.72-0.61c1.08,0,1.99,0.19,2.72,0.57c0.73,0.38,1.32,0.9,1.76,1.57c0.44,0.67,0.75,1.47,0.94,2.38
		c0.19,0.91,0.28,1.9,0.28,2.97C487.32,138.26,487.22,139.22,487.03,140.13z"/>
	<path class="st13" d="M520.54,131.46c-0.2-0.59-0.48-1.1-0.85-1.55c-0.37-0.44-0.81-0.82-1.34-1.12c-0.53-0.3-1.04-0.51-1.55-0.62
		c-0.51-0.11-0.95-0.18-1.32-0.22c-0.37-0.03-0.76-0.05-1.17-0.05h-4.02c-0.25,0-0.48,0.08-0.68,0.25c-0.2,0.16-0.3,0.44-0.3,0.83
		v17.32c0,0.08,0.02,0.15,0.06,0.2c0.04,0.06,0.11,0.1,0.2,0.14c0.1,0.03,0.22,0.06,0.38,0.09c0.16,0.02,0.36,0.04,0.6,0.04
		c0.24,0,0.44-0.01,0.6-0.04c0.16-0.02,0.29-0.05,0.38-0.09c0.09-0.03,0.16-0.08,0.2-0.14c0.04-0.06,0.07-0.13,0.07-0.2v-6.76h2.13
		c1.16,0,2.16-0.15,3-0.44c0.84-0.29,1.54-0.7,2.12-1.23c0.58-0.53,1.02-1.18,1.33-1.93c0.31-0.75,0.46-1.6,0.46-2.54
		C520.83,132.69,520.73,132.05,520.54,131.46z M517.95,135.16c-0.17,0.48-0.43,0.89-0.77,1.23c-0.34,0.34-0.76,0.61-1.25,0.81
		c-0.5,0.19-1.12,0.29-1.88,0.29h-2.25v-7.53h2.31c0.43,0,0.86,0.03,1.31,0.1c0.45,0.07,0.88,0.23,1.31,0.48
		c0.42,0.25,0.77,0.63,1.06,1.15c0.29,0.51,0.43,1.15,0.43,1.91C518.21,134.16,518.12,134.68,517.95,135.16z"/>
	<path class="st13" d="M541.45,145.97c-0.04-0.14-0.13-0.38-0.26-0.73l-1.68-4.13c-0.19-0.47-0.39-0.9-0.58-1.28
		c-0.19-0.38-0.4-0.71-0.62-1s-0.45-0.54-0.7-0.75c-0.25-0.21-0.53-0.38-0.84-0.52c0.55-0.19,1.05-0.43,1.49-0.71
		c0.44-0.28,0.83-0.61,1.15-0.99c0.32-0.38,0.56-0.82,0.73-1.32c0.17-0.5,0.25-1.06,0.25-1.69c0-0.65-0.09-1.24-0.28-1.78
		c-0.19-0.54-0.47-1.01-0.85-1.43c-0.38-0.42-0.84-0.76-1.4-1.03c-0.56-0.27-1.2-0.47-1.92-0.59c-0.25-0.03-0.53-0.06-0.85-0.08
		c-0.31-0.02-0.71-0.04-1.18-0.04h-3.99c-0.22,0-0.43,0.08-0.63,0.22c-0.2,0.15-0.3,0.41-0.3,0.79v17.38c0,0.08,0.02,0.15,0.06,0.2
		c0.04,0.06,0.11,0.1,0.2,0.14c0.1,0.03,0.22,0.06,0.38,0.09c0.16,0.02,0.36,0.04,0.6,0.04c0.24,0,0.44-0.01,0.6-0.04
		c0.16-0.02,0.29-0.05,0.38-0.09c0.09-0.03,0.16-0.08,0.2-0.14c0.04-0.06,0.07-0.13,0.07-0.2v-7.99h1.67c0.57,0,1.06,0.08,1.47,0.25
		c0.41,0.17,0.76,0.41,1.06,0.71c0.3,0.3,0.56,0.67,0.78,1.09c0.22,0.42,0.43,0.88,0.63,1.39l1.73,4.42
		c0.04,0.12,0.08,0.21,0.14,0.29c0.05,0.08,0.13,0.14,0.22,0.18c0.1,0.04,0.22,0.07,0.38,0.09c0.16,0.02,0.36,0.03,0.62,0.03
		c0.29,0,0.52-0.01,0.7-0.03c0.17-0.02,0.31-0.05,0.41-0.09c0.1-0.04,0.16-0.09,0.19-0.15c0.03-0.06,0.04-0.13,0.04-0.2
		C541.51,146.22,541.49,146.11,541.45,145.97z M537.52,134.37c-0.15,0.39-0.38,0.72-0.7,1.01c-0.32,0.29-0.72,0.51-1.2,0.67
		c-0.48,0.16-1.05,0.24-1.7,0.24h-2.44v-6.33h2.1c0.49,0,0.89,0.01,1.2,0.04c0.3,0.03,0.58,0.08,0.82,0.15
		c0.77,0.22,1.32,0.59,1.65,1.1c0.33,0.51,0.49,1.13,0.49,1.86C537.75,133.56,537.67,133.98,537.52,134.37z"/>
	<path class="st13" d="M564.39,133.03c-0.33-1.18-0.84-2.16-1.52-2.96c-0.68-0.8-1.54-1.4-2.56-1.82c-1.03-0.42-2.23-0.62-3.61-0.62
		c-1.43,0-2.68,0.23-3.76,0.69c-1.07,0.46-1.97,1.11-2.68,1.96c-0.72,0.85-1.25,1.87-1.61,3.08c-0.36,1.21-0.54,2.55-0.54,4.03
		c0,1.55,0.16,2.92,0.49,4.11c0.33,1.19,0.83,2.19,1.5,2.99c0.67,0.8,1.52,1.41,2.55,1.84c1.03,0.42,2.25,0.63,3.66,0.63
		c1.43,0,2.68-0.23,3.76-0.69c1.07-0.46,1.97-1.12,2.68-1.97c0.71-0.86,1.25-1.89,1.6-3.11c0.36-1.22,0.54-2.59,0.54-4.11
		C564.89,135.55,564.73,134.2,564.39,133.03z M561.96,140.13c-0.19,0.91-0.52,1.71-0.97,2.4c-0.45,0.69-1.05,1.24-1.8,1.65
		c-0.74,0.41-1.66,0.61-2.75,0.61c-1.1,0-2.02-0.19-2.75-0.56c-0.73-0.37-1.31-0.89-1.75-1.57c-0.43-0.67-0.74-1.47-0.93-2.4
		c-0.18-0.93-0.28-1.94-0.28-3.05c0-1,0.1-1.95,0.3-2.85c0.2-0.9,0.53-1.69,0.99-2.37c0.46-0.68,1.06-1.22,1.79-1.62
		c0.73-0.41,1.64-0.61,2.72-0.61c1.08,0,1.99,0.19,2.72,0.57c0.73,0.38,1.32,0.9,1.76,1.57c0.44,0.67,0.75,1.47,0.94,2.38
		c0.19,0.91,0.28,1.9,0.28,2.97C562.25,138.26,562.16,139.22,561.96,140.13z"/>
	<path class="st13" d="M583.01,128.49c-0.02-0.14-0.05-0.25-0.1-0.34c-0.05-0.09-0.1-0.15-0.17-0.19c-0.06-0.04-0.13-0.06-0.2-0.06
		h-8.44c-0.22,0-0.43,0.08-0.63,0.22c-0.2,0.15-0.3,0.41-0.3,0.79v17.38c0,0.07,0.02,0.13,0.06,0.2c0.04,0.06,0.11,0.11,0.2,0.15
		c0.1,0.03,0.23,0.06,0.39,0.09c0.16,0.02,0.36,0.04,0.59,0.04c0.25,0,0.45-0.01,0.61-0.04c0.15-0.02,0.28-0.05,0.38-0.09
		c0.1-0.03,0.16-0.08,0.2-0.15c0.04-0.06,0.06-0.13,0.06-0.2v-7.82h6.5c0.07,0,0.13-0.02,0.2-0.07c0.06-0.04,0.12-0.11,0.17-0.19
		c0.05-0.08,0.08-0.19,0.1-0.32c0.02-0.13,0.03-0.29,0.03-0.47c0-0.2-0.01-0.37-0.03-0.5c-0.02-0.13-0.05-0.23-0.1-0.31
		c-0.05-0.08-0.1-0.13-0.17-0.17c-0.06-0.03-0.13-0.05-0.2-0.05h-6.5v-6.38h6.88c0.07,0,0.13-0.02,0.2-0.06
		c0.06-0.04,0.12-0.1,0.17-0.18c0.05-0.08,0.08-0.19,0.1-0.33c0.02-0.14,0.03-0.29,0.03-0.48
		C583.04,128.79,583.03,128.63,583.01,128.49z"/>
	<path class="st13" d="M601.58,145.16c-0.02-0.13-0.05-0.24-0.1-0.32c-0.05-0.08-0.1-0.14-0.17-0.18c-0.06-0.04-0.13-0.06-0.21-0.06
		h-7.44v-6.72h6.3c0.08,0,0.15-0.02,0.21-0.05c0.06-0.03,0.12-0.09,0.16-0.17c0.04-0.08,0.07-0.18,0.09-0.3
		c0.02-0.13,0.03-0.28,0.03-0.45c0-0.18-0.01-0.34-0.03-0.48c-0.02-0.14-0.05-0.24-0.09-0.32c-0.04-0.08-0.1-0.14-0.16-0.18
		c-0.06-0.04-0.13-0.07-0.21-0.07h-6.3v-5.89H601c0.08,0,0.15-0.02,0.21-0.06c0.06-0.04,0.11-0.1,0.15-0.18
		c0.04-0.08,0.07-0.19,0.09-0.32c0.02-0.13,0.04-0.28,0.04-0.46c0-0.19-0.01-0.36-0.04-0.49c-0.02-0.13-0.06-0.24-0.09-0.33
		c-0.04-0.09-0.09-0.15-0.15-0.19c-0.06-0.04-0.13-0.06-0.21-0.06h-8.91c-0.22,0-0.43,0.08-0.63,0.22c-0.2,0.15-0.3,0.41-0.3,0.79
		v16.74c0,0.38,0.1,0.64,0.3,0.79c0.2,0.15,0.41,0.22,0.63,0.22h9.01c0.08,0,0.15-0.02,0.21-0.06c0.06-0.04,0.12-0.1,0.17-0.19
		c0.05-0.09,0.08-0.2,0.1-0.33c0.02-0.13,0.03-0.28,0.03-0.46C601.61,145.45,601.6,145.29,601.58,145.16z"/>
	<path class="st13" d="M619.43,139.47c-0.25-0.55-0.57-1.02-0.97-1.42c-0.4-0.4-0.86-0.75-1.37-1.04c-0.51-0.29-1.04-0.57-1.57-0.81
		c-0.53-0.25-1.05-0.49-1.57-0.73c-0.51-0.24-0.97-0.51-1.37-0.8c-0.4-0.29-0.72-0.62-0.96-1c-0.24-0.38-0.36-0.83-0.36-1.35
		c0-0.36,0.06-0.7,0.19-1.02c0.13-0.32,0.31-0.59,0.57-0.83c0.25-0.23,0.57-0.42,0.96-0.56c0.39-0.14,0.84-0.21,1.36-0.21
		c0.56,0,1.07,0.07,1.52,0.21c0.45,0.14,0.84,0.3,1.17,0.46c0.33,0.17,0.61,0.32,0.83,0.46c0.23,0.14,0.39,0.2,0.5,0.2
		c0.07,0,0.13-0.02,0.18-0.07c0.05-0.04,0.09-0.11,0.12-0.2c0.03-0.09,0.05-0.21,0.07-0.34c0.01-0.14,0.02-0.29,0.02-0.46
		c0-0.18-0.01-0.33-0.01-0.45c-0.01-0.12-0.02-0.22-0.04-0.3c-0.02-0.08-0.04-0.15-0.07-0.2c-0.03-0.05-0.09-0.13-0.18-0.22
		c-0.09-0.09-0.28-0.21-0.57-0.36c-0.29-0.15-0.62-0.29-0.99-0.41c-0.37-0.12-0.77-0.22-1.19-0.29c-0.42-0.07-0.84-0.11-1.25-0.11
		c-0.81,0-1.57,0.11-2.27,0.33c-0.7,0.22-1.31,0.53-1.81,0.95c-0.51,0.42-0.9,0.93-1.19,1.55c-0.29,0.61-0.43,1.31-0.43,2.1
		c0,0.76,0.12,1.42,0.37,1.97c0.25,0.55,0.57,1.02,0.96,1.43c0.4,0.41,0.85,0.76,1.35,1.06c0.5,0.3,1.02,0.57,1.55,0.82
		c0.53,0.25,1.05,0.49,1.56,0.73c0.51,0.24,0.96,0.5,1.36,0.78c0.4,0.29,0.72,0.62,0.96,0.99c0.24,0.38,0.36,0.83,0.36,1.36
		c0,0.49-0.09,0.93-0.26,1.32c-0.17,0.39-0.42,0.71-0.75,0.98c-0.32,0.27-0.71,0.47-1.16,0.62c-0.45,0.15-0.95,0.22-1.49,0.22
		c-0.72,0-1.35-0.08-1.89-0.25c-0.55-0.17-1.01-0.35-1.4-0.54c-0.39-0.19-0.7-0.37-0.95-0.54c-0.25-0.16-0.44-0.25-0.57-0.25
		c-0.08,0-0.15,0.02-0.2,0.05c-0.06,0.03-0.11,0.09-0.15,0.18c-0.04,0.09-0.07,0.2-0.09,0.34c-0.02,0.14-0.03,0.32-0.03,0.53
		c0,0.3,0.03,0.54,0.08,0.72c0.05,0.18,0.14,0.33,0.25,0.44c0.11,0.12,0.31,0.26,0.59,0.42c0.29,0.16,0.64,0.32,1.06,0.48
		c0.42,0.15,0.9,0.29,1.44,0.39c0.54,0.11,1.12,0.16,1.75,0.16c0.9,0,1.74-0.12,2.52-0.36c0.78-0.24,1.46-0.6,2.03-1.08
		c0.58-0.48,1.03-1.06,1.35-1.75c0.32-0.69,0.49-1.47,0.49-2.35C619.8,140.66,619.68,140.02,619.43,139.47z"/>
	<path class="st13" d="M630.21,128.28c0-0.08-0.02-0.15-0.06-0.2c-0.04-0.06-0.11-0.1-0.2-0.14c-0.1-0.03-0.22-0.06-0.38-0.09
		c-0.16-0.02-0.36-0.04-0.6-0.04c-0.22,0-0.41,0.01-0.57,0.04c-0.16,0.02-0.29,0.05-0.39,0.09c-0.1,0.03-0.17,0.08-0.22,0.14
		c-0.04,0.06-0.07,0.13-0.07,0.2v18.02c0,0.08,0.02,0.15,0.06,0.2c0.04,0.06,0.11,0.1,0.2,0.14c0.1,0.03,0.23,0.06,0.39,0.09
		c0.16,0.02,0.36,0.04,0.59,0.04c0.24,0,0.44-0.01,0.6-0.04c0.16-0.02,0.29-0.05,0.38-0.09c0.1-0.03,0.16-0.08,0.2-0.14
		c0.04-0.06,0.06-0.13,0.06-0.2V128.28z"/>
	<path class="st13" d="M654.76,133.03c-0.33-1.18-0.84-2.16-1.52-2.96c-0.68-0.8-1.54-1.4-2.56-1.82c-1.03-0.42-2.23-0.62-3.61-0.62
		c-1.43,0-2.68,0.23-3.76,0.69c-1.07,0.46-1.97,1.11-2.68,1.96c-0.72,0.85-1.25,1.87-1.61,3.08c-0.36,1.21-0.54,2.55-0.54,4.03
		c0,1.55,0.16,2.92,0.49,4.11c0.33,1.19,0.83,2.19,1.5,2.99c0.67,0.8,1.52,1.41,2.55,1.84c1.03,0.42,2.25,0.63,3.66,0.63
		c1.43,0,2.68-0.23,3.76-0.69c1.07-0.46,1.97-1.12,2.68-1.97c0.71-0.86,1.25-1.89,1.6-3.11c0.36-1.22,0.54-2.59,0.54-4.11
		C655.26,135.55,655.09,134.2,654.76,133.03z M652.33,140.13c-0.19,0.91-0.52,1.71-0.97,2.4c-0.45,0.69-1.05,1.24-1.8,1.65
		c-0.74,0.41-1.66,0.61-2.75,0.61c-1.1,0-2.02-0.19-2.75-0.56c-0.73-0.37-1.31-0.89-1.75-1.57c-0.43-0.67-0.74-1.47-0.93-2.4
		c-0.18-0.93-0.28-1.94-0.28-3.05c0-1,0.1-1.95,0.3-2.85c0.2-0.9,0.53-1.69,0.99-2.37c0.46-0.68,1.06-1.22,1.79-1.62
		c0.73-0.41,1.64-0.61,2.72-0.61c1.08,0,1.99,0.19,2.72,0.57c0.73,0.38,1.32,0.9,1.76,1.57c0.44,0.67,0.75,1.47,0.94,2.38
		c0.19,0.91,0.28,1.9,0.28,2.97C652.62,138.26,652.52,139.22,652.33,140.13z"/>
	<path class="st13" d="M677.73,128.32c0-0.07-0.02-0.13-0.06-0.19c-0.04-0.06-0.11-0.11-0.2-0.15c-0.09-0.04-0.22-0.07-0.38-0.09
		c-0.16-0.02-0.36-0.03-0.58-0.03c-0.26,0-0.46,0.01-0.62,0.03c-0.16,0.02-0.29,0.05-0.38,0.09c-0.1,0.04-0.17,0.09-0.21,0.15
		c-0.04,0.06-0.06,0.12-0.06,0.19v10.18c0,0.76,0,1.56,0.01,2.39c0,0.83,0.02,1.62,0.04,2.39h-0.01c-0.22-0.45-0.45-0.91-0.68-1.36
		c-0.23-0.45-0.46-0.91-0.69-1.37c-0.23-0.46-0.48-0.94-0.73-1.41c-0.25-0.48-0.51-0.97-0.79-1.47l-4.4-8.24
		c-0.16-0.3-0.31-0.55-0.46-0.75c-0.14-0.2-0.29-0.35-0.45-0.46c-0.15-0.11-0.33-0.19-0.52-0.24c-0.19-0.05-0.44-0.07-0.73-0.07
		h-1.23c-0.26,0-0.5,0.08-0.72,0.25c-0.22,0.16-0.33,0.44-0.33,0.83v17.32c0,0.07,0.02,0.13,0.06,0.2c0.04,0.06,0.11,0.11,0.2,0.15
		c0.09,0.03,0.22,0.06,0.37,0.09c0.16,0.02,0.36,0.04,0.6,0.04c0.24,0,0.45-0.01,0.6-0.04c0.16-0.02,0.29-0.05,0.38-0.09
		c0.1-0.03,0.17-0.08,0.21-0.15c0.04-0.06,0.06-0.13,0.06-0.2v-11.33c0-0.72-0.01-1.44-0.01-2.16c-0.01-0.73-0.02-1.44-0.04-2.13
		h0.03c0.26,0.57,0.54,1.16,0.85,1.76c0.3,0.6,0.61,1.18,0.91,1.73l5.73,10.68c0.2,0.38,0.38,0.69,0.56,0.93
		c0.17,0.24,0.35,0.43,0.53,0.57c0.17,0.14,0.36,0.24,0.56,0.29c0.19,0.05,0.42,0.08,0.68,0.08h0.83c0.13,0,0.26-0.02,0.39-0.06
		c0.13-0.04,0.25-0.1,0.35-0.19c0.11-0.09,0.19-0.2,0.26-0.33c0.06-0.14,0.1-0.3,0.1-0.49V128.32z"/>
	<path class="st13" d="M694.82,128.35c-0.04-0.11-0.09-0.2-0.16-0.27c-0.07-0.07-0.16-0.13-0.29-0.17
		c-0.13-0.04-0.29-0.07-0.49-0.08c-0.2-0.01-0.46-0.02-0.77-0.02c-0.29,0-0.53,0.01-0.72,0.02c-0.19,0.01-0.34,0.04-0.46,0.08
		c-0.12,0.04-0.21,0.09-0.28,0.16c-0.06,0.07-0.11,0.15-0.15,0.26l-6.3,17.44c-0.08,0.21-0.12,0.38-0.12,0.52
		c-0.01,0.13,0.03,0.23,0.1,0.3c0.07,0.07,0.2,0.11,0.38,0.14c0.18,0.02,0.41,0.04,0.69,0.04c0.27,0,0.49-0.01,0.66-0.03
		c0.17-0.02,0.3-0.05,0.39-0.09c0.09-0.04,0.16-0.1,0.21-0.16c0.05-0.06,0.09-0.14,0.12-0.22l1.54-4.51h7.8l1.61,4.57
		c0.04,0.09,0.08,0.16,0.12,0.22c0.04,0.06,0.11,0.1,0.2,0.14c0.09,0.03,0.23,0.06,0.41,0.07c0.18,0.01,0.42,0.02,0.72,0.02
		c0.3,0,0.54-0.01,0.72-0.03c0.18-0.02,0.31-0.06,0.38-0.13c0.08-0.07,0.11-0.17,0.11-0.3c-0.01-0.13-0.05-0.3-0.12-0.52
		L694.82,128.35z M696.32,139.75h-6.53l3.24-9.36h0.01L696.32,139.75z M692.04,125.81c-0.09,0.11-0.14,0.2-0.16,0.28
		c-0.02,0.08,0,0.14,0.04,0.2c0.05,0.05,0.14,0.09,0.26,0.12c0.13,0.02,0.3,0.04,0.52,0.04c0.2,0,0.37-0.01,0.52-0.02
		c0.14-0.01,0.26-0.04,0.37-0.07c0.11-0.03,0.2-0.08,0.28-0.13c0.08-0.05,0.17-0.13,0.27-0.22l3.29-3.08
		c0.09-0.1,0.14-0.19,0.17-0.28c0.02-0.09,0-0.16-0.07-0.23c-0.07-0.07-0.18-0.12-0.35-0.17c-0.16-0.04-0.39-0.07-0.68-0.07
		c-0.24,0-0.45,0.01-0.62,0.02c-0.17,0.01-0.32,0.04-0.45,0.08c-0.13,0.04-0.24,0.09-0.34,0.16c-0.1,0.07-0.21,0.16-0.31,0.29
		L692.04,125.81z"/>
	<path class="st13" d="M718.3,145.09c-0.02-0.14-0.05-0.24-0.09-0.33c-0.04-0.08-0.1-0.15-0.16-0.19c-0.06-0.04-0.14-0.07-0.22-0.07
		h-6.73v-16.23c0-0.08-0.02-0.15-0.06-0.2c-0.04-0.06-0.11-0.1-0.2-0.14c-0.1-0.03-0.22-0.06-0.38-0.09
		c-0.16-0.02-0.36-0.04-0.6-0.04c-0.23,0-0.43,0.01-0.59,0.04c-0.16,0.02-0.3,0.05-0.39,0.09c-0.1,0.03-0.16,0.08-0.2,0.14
		c-0.04,0.06-0.06,0.13-0.06,0.2v17.38c0,0.38,0.1,0.64,0.3,0.79c0.2,0.15,0.41,0.22,0.63,0.22h8.3c0.09,0,0.16-0.02,0.22-0.07
		c0.06-0.04,0.12-0.11,0.16-0.2c0.04-0.09,0.07-0.2,0.09-0.33c0.02-0.13,0.03-0.29,0.03-0.49
		C718.32,145.39,718.31,145.23,718.3,145.09z"/>
	<path class="st13" d="M739.61,128.32c0-0.07-0.02-0.13-0.06-0.19c-0.04-0.06-0.11-0.11-0.2-0.15c-0.09-0.04-0.22-0.07-0.38-0.09
		c-0.16-0.02-0.36-0.03-0.58-0.03c-0.26,0-0.46,0.01-0.62,0.03c-0.16,0.02-0.29,0.05-0.38,0.09c-0.1,0.04-0.17,0.09-0.21,0.15
		c-0.04,0.06-0.06,0.12-0.06,0.19v10.18c0,0.76,0,1.56,0.01,2.39c0,0.83,0.02,1.62,0.04,2.39h-0.01c-0.22-0.45-0.45-0.91-0.68-1.36
		c-0.23-0.45-0.46-0.91-0.69-1.37c-0.23-0.46-0.48-0.94-0.73-1.41c-0.25-0.48-0.51-0.97-0.79-1.47l-4.4-8.24
		c-0.16-0.3-0.31-0.55-0.46-0.75c-0.14-0.2-0.29-0.35-0.45-0.46c-0.15-0.11-0.33-0.19-0.52-0.24c-0.19-0.05-0.44-0.07-0.73-0.07
		h-1.23c-0.26,0-0.5,0.08-0.72,0.25c-0.22,0.16-0.33,0.44-0.33,0.83v17.32c0,0.07,0.02,0.13,0.06,0.2c0.04,0.06,0.11,0.11,0.2,0.15
		c0.09,0.03,0.22,0.06,0.37,0.09c0.16,0.02,0.36,0.04,0.6,0.04c0.24,0,0.45-0.01,0.6-0.04c0.16-0.02,0.29-0.05,0.38-0.09
		c0.1-0.03,0.17-0.08,0.21-0.15c0.04-0.06,0.06-0.13,0.06-0.2v-11.33c0-0.72,0-1.44-0.01-2.16c-0.01-0.73-0.02-1.44-0.04-2.13h0.03
		c0.26,0.57,0.54,1.16,0.85,1.76c0.3,0.6,0.61,1.18,0.91,1.73l5.73,10.68c0.2,0.38,0.38,0.69,0.56,0.93
		c0.17,0.24,0.35,0.43,0.53,0.57c0.17,0.14,0.36,0.24,0.56,0.29c0.2,0.05,0.42,0.08,0.68,0.08h0.83c0.13,0,0.26-0.02,0.39-0.06
		c0.13-0.04,0.25-0.1,0.35-0.19c0.11-0.09,0.19-0.2,0.26-0.33c0.06-0.14,0.1-0.3,0.1-0.49V128.32z"/>
	<path class="st13" d="M751.43,128.28c0-0.08-0.02-0.15-0.06-0.2c-0.04-0.06-0.11-0.1-0.2-0.14c-0.1-0.03-0.22-0.06-0.38-0.09
		c-0.16-0.02-0.36-0.04-0.6-0.04c-0.22,0-0.41,0.01-0.57,0.04c-0.16,0.02-0.29,0.05-0.39,0.09c-0.1,0.03-0.17,0.08-0.22,0.14
		c-0.04,0.06-0.07,0.13-0.07,0.2v18.02c0,0.08,0.02,0.15,0.06,0.2c0.04,0.06,0.11,0.1,0.2,0.14c0.1,0.03,0.23,0.06,0.39,0.09
		c0.16,0.02,0.36,0.04,0.59,0.04c0.24,0,0.44-0.01,0.6-0.04c0.16-0.02,0.29-0.05,0.38-0.09c0.1-0.03,0.16-0.08,0.2-0.14
		c0.04-0.06,0.06-0.13,0.06-0.2V128.28z M749.11,125.81c-0.09,0.11-0.14,0.2-0.16,0.28c-0.02,0.08-0.01,0.14,0.04,0.2
		c0.05,0.05,0.14,0.09,0.26,0.12c0.13,0.02,0.3,0.04,0.52,0.04c0.2,0,0.37-0.01,0.52-0.02c0.14-0.01,0.26-0.04,0.37-0.07
		c0.11-0.03,0.2-0.08,0.28-0.13c0.08-0.05,0.17-0.13,0.27-0.22l3.29-3.08c0.09-0.1,0.14-0.19,0.17-0.28c0.02-0.09,0-0.16-0.07-0.23
		c-0.07-0.07-0.18-0.12-0.35-0.17c-0.16-0.04-0.39-0.07-0.68-0.07c-0.24,0-0.45,0.01-0.62,0.02c-0.17,0.01-0.32,0.04-0.45,0.08
		c-0.13,0.04-0.24,0.09-0.34,0.16c-0.1,0.07-0.21,0.16-0.31,0.29L749.11,125.81z"/>
	<path class="st13" d="M784.01,146.04c-0.03-0.09-0.13-0.26-0.3-0.52l-6.7-8.91l6.22-7.44c0.17-0.22,0.29-0.4,0.36-0.52
		c0.06-0.13,0.09-0.25,0.09-0.38c0-0.07-0.02-0.13-0.05-0.19c-0.03-0.06-0.1-0.11-0.19-0.15c-0.09-0.04-0.22-0.07-0.37-0.09
		c-0.15-0.02-0.36-0.04-0.61-0.04c-0.25,0-0.46,0.01-0.62,0.03c-0.16,0.02-0.3,0.05-0.41,0.08c-0.11,0.03-0.21,0.08-0.28,0.14
		c-0.08,0.06-0.15,0.13-0.2,0.22l-6.64,8.34v-8.34c0-0.08-0.02-0.15-0.06-0.2c-0.04-0.06-0.11-0.1-0.2-0.14
		c-0.1-0.03-0.22-0.06-0.38-0.09c-0.16-0.02-0.36-0.04-0.6-0.04c-0.23,0-0.43,0.01-0.59,0.04c-0.16,0.02-0.3,0.05-0.39,0.09
		c-0.1,0.03-0.16,0.08-0.2,0.14c-0.04,0.06-0.06,0.13-0.06,0.2v18.02c0,0.07,0.02,0.13,0.06,0.2c0.04,0.06,0.11,0.11,0.2,0.15
		c0.1,0.03,0.23,0.06,0.39,0.09c0.16,0.02,0.36,0.04,0.59,0.04c0.24,0,0.44-0.01,0.6-0.04c0.16-0.02,0.29-0.05,0.38-0.09
		c0.1-0.03,0.16-0.08,0.2-0.15c0.04-0.06,0.06-0.13,0.06-0.2v-9.39l6.91,9.39c0.07,0.1,0.15,0.18,0.26,0.26
		c0.11,0.08,0.27,0.13,0.48,0.16c0.21,0.03,0.49,0.04,0.83,0.04c0.26,0,0.47-0.01,0.64-0.04c0.16-0.02,0.29-0.06,0.39-0.09
		c0.1-0.04,0.16-0.09,0.2-0.15c0.03-0.06,0.05-0.13,0.05-0.21C784.06,146.21,784.04,146.13,784.01,146.04z"/>
	<path class="st13" d="M799.35,128.35c-0.04-0.11-0.09-0.2-0.16-0.27c-0.07-0.07-0.16-0.13-0.29-0.17
		c-0.13-0.04-0.29-0.07-0.49-0.08c-0.2-0.01-0.46-0.02-0.77-0.02c-0.29,0-0.53,0.01-0.72,0.02c-0.19,0.01-0.34,0.04-0.46,0.08
		c-0.12,0.04-0.21,0.09-0.28,0.16c-0.06,0.07-0.11,0.15-0.15,0.26l-6.3,17.44c-0.08,0.21-0.12,0.38-0.12,0.52
		c-0.01,0.13,0.03,0.23,0.1,0.3c0.07,0.07,0.2,0.11,0.38,0.14c0.18,0.02,0.41,0.04,0.69,0.04c0.27,0,0.49-0.01,0.66-0.03
		c0.17-0.02,0.3-0.05,0.39-0.09c0.09-0.04,0.16-0.1,0.21-0.16c0.05-0.06,0.09-0.14,0.12-0.22l1.54-4.51h7.8l1.61,4.57
		c0.04,0.09,0.08,0.16,0.12,0.22c0.04,0.06,0.11,0.1,0.2,0.14c0.09,0.03,0.23,0.06,0.41,0.07c0.18,0.01,0.42,0.02,0.72,0.02
		c0.3,0,0.54-0.01,0.72-0.03c0.18-0.02,0.31-0.06,0.38-0.13c0.08-0.07,0.11-0.17,0.11-0.3c0-0.13-0.05-0.3-0.12-0.52L799.35,128.35z
		 M800.84,139.75h-6.53l3.24-9.36h0.01L800.84,139.75z"/>
	<path class="st13" d="M826.96,133.21c-0.39-1.12-0.97-2.08-1.73-2.87c-0.76-0.79-1.7-1.39-2.82-1.81c-1.12-0.42-2.5-0.63-4.12-0.63
		h-4.25c-0.22,0-0.43,0.08-0.63,0.22c-0.2,0.15-0.3,0.41-0.3,0.79v16.74c0,0.38,0.1,0.64,0.3,0.79c0.2,0.15,0.41,0.22,0.63,0.22
		h3.98c1.61,0,2.99-0.2,4.15-0.59c1.16-0.4,2.14-0.99,2.94-1.79c0.8-0.8,1.4-1.8,1.82-3.02c0.42-1.21,0.62-2.63,0.62-4.26
		C827.55,135.6,827.36,134.33,826.96,133.21z M824.51,140.43c-0.28,0.93-0.69,1.71-1.24,2.33c-0.55,0.62-1.24,1.08-2.06,1.38
		c-0.82,0.3-1.83,0.45-3.03,0.45h-2.57v-14.61h2.54c1.3,0,2.35,0.18,3.18,0.54c0.82,0.36,1.5,0.86,2.04,1.49
		c0.54,0.64,0.93,1.4,1.18,2.27c0.25,0.88,0.38,1.82,0.38,2.84C824.93,138.39,824.79,139.49,824.51,140.43z"/>
	<path class="st13" d="M846.15,145.16c-0.02-0.13-0.05-0.24-0.1-0.32c-0.05-0.08-0.1-0.14-0.17-0.18c-0.06-0.04-0.13-0.06-0.21-0.06
		h-7.44v-6.72h6.3c0.08,0,0.15-0.02,0.21-0.05c0.06-0.03,0.12-0.09,0.16-0.17c0.04-0.08,0.07-0.18,0.09-0.3
		c0.02-0.13,0.03-0.28,0.03-0.45c0-0.18-0.01-0.34-0.03-0.48c-0.02-0.14-0.05-0.24-0.09-0.32c-0.04-0.08-0.1-0.14-0.16-0.18
		c-0.06-0.04-0.13-0.07-0.21-0.07h-6.3v-5.89h7.34c0.08,0,0.15-0.02,0.21-0.06c0.06-0.04,0.11-0.1,0.15-0.18
		c0.04-0.08,0.07-0.19,0.09-0.32c0.02-0.13,0.04-0.28,0.04-0.46c0-0.19-0.01-0.36-0.04-0.49c-0.02-0.13-0.06-0.24-0.09-0.33
		c-0.04-0.09-0.09-0.15-0.15-0.19c-0.06-0.04-0.13-0.06-0.21-0.06h-8.91c-0.22,0-0.43,0.08-0.63,0.22c-0.2,0.15-0.3,0.41-0.3,0.79
		v16.74c0,0.38,0.1,0.64,0.3,0.79c0.2,0.15,0.41,0.22,0.63,0.22h9.01c0.08,0,0.15-0.02,0.21-0.06c0.06-0.04,0.12-0.1,0.17-0.19
		c0.05-0.09,0.08-0.2,0.1-0.33c0.02-0.13,0.03-0.28,0.03-0.46C846.18,145.45,846.17,145.29,846.15,145.16z"/>
	<path class="st13" d="M867.04,145.97c-0.04-0.14-0.13-0.38-0.26-0.73l-1.68-4.13c-0.19-0.47-0.39-0.9-0.58-1.28
		c-0.19-0.38-0.4-0.71-0.62-1s-0.45-0.54-0.7-0.75c-0.25-0.21-0.53-0.38-0.84-0.52c0.55-0.19,1.05-0.43,1.49-0.71
		c0.44-0.28,0.83-0.61,1.15-0.99c0.32-0.38,0.56-0.82,0.73-1.32c0.17-0.5,0.25-1.06,0.25-1.69c0-0.65-0.09-1.24-0.28-1.78
		c-0.19-0.54-0.47-1.01-0.85-1.43c-0.38-0.42-0.84-0.76-1.4-1.03c-0.56-0.27-1.2-0.47-1.92-0.59c-0.25-0.03-0.53-0.06-0.85-0.08
		c-0.31-0.02-0.71-0.04-1.18-0.04h-3.99c-0.22,0-0.43,0.08-0.63,0.22c-0.2,0.15-0.3,0.41-0.3,0.79v17.38c0,0.08,0.02,0.15,0.06,0.2
		c0.04,0.06,0.11,0.1,0.2,0.14c0.1,0.03,0.22,0.06,0.38,0.09c0.16,0.02,0.36,0.04,0.6,0.04c0.24,0,0.44-0.01,0.6-0.04
		c0.16-0.02,0.29-0.05,0.38-0.09c0.09-0.03,0.16-0.08,0.2-0.14c0.04-0.06,0.07-0.13,0.07-0.2v-7.99h1.67c0.57,0,1.06,0.08,1.47,0.25
		c0.41,0.17,0.76,0.41,1.06,0.71c0.3,0.3,0.56,0.67,0.78,1.09c0.22,0.42,0.43,0.88,0.63,1.39l1.73,4.42
		c0.04,0.12,0.08,0.21,0.14,0.29c0.05,0.08,0.13,0.14,0.22,0.18c0.1,0.04,0.22,0.07,0.38,0.09c0.16,0.02,0.36,0.03,0.62,0.03
		c0.29,0,0.52-0.01,0.7-0.03c0.17-0.02,0.31-0.05,0.41-0.09c0.1-0.04,0.16-0.09,0.19-0.15c0.03-0.06,0.04-0.13,0.04-0.2
		C867.1,146.22,867.08,146.11,867.04,145.97z M863.12,134.37c-0.15,0.39-0.38,0.72-0.7,1.01c-0.32,0.29-0.72,0.51-1.2,0.67
		c-0.48,0.16-1.05,0.24-1.7,0.24h-2.44v-6.33h2.1c0.49,0,0.89,0.01,1.2,0.04c0.3,0.03,0.58,0.08,0.82,0.15
		c0.77,0.22,1.32,0.59,1.65,1.1c0.33,0.51,0.49,1.13,0.49,1.86C863.34,133.56,863.27,133.98,863.12,134.37z M860.35,126.42
		c0.14-0.01,0.26-0.03,0.37-0.07c0.11-0.03,0.2-0.08,0.29-0.13c0.09-0.05,0.17-0.12,0.25-0.21l3.24-3.29
		c0.08-0.09,0.13-0.17,0.15-0.24c0.02-0.07,0.01-0.13-0.04-0.17c-0.05-0.04-0.14-0.08-0.28-0.1c-0.14-0.02-0.33-0.04-0.56-0.04
		c-0.26,0-0.48,0-0.65,0.01c-0.17,0.01-0.32,0.03-0.43,0.06c-0.11,0.03-0.21,0.07-0.29,0.12c-0.08,0.05-0.16,0.12-0.22,0.2
		l-2.32,2.44l-2.23-2.5c-0.06-0.05-0.12-0.1-0.17-0.15c-0.06-0.05-0.14-0.08-0.25-0.11c-0.11-0.02-0.25-0.04-0.42-0.06
		c-0.17-0.01-0.41-0.02-0.7-0.02c-0.21,0-0.39,0.01-0.52,0.03c-0.14,0.02-0.23,0.05-0.29,0.09c-0.06,0.04-0.08,0.1-0.06,0.17
		c0.02,0.07,0.07,0.16,0.16,0.25l3.1,3.29c0.09,0.09,0.17,0.16,0.24,0.22c0.07,0.06,0.16,0.1,0.26,0.13s0.22,0.05,0.36,0.06
		c0.14,0.01,0.3,0.01,0.51,0.01C860.04,126.43,860.21,126.43,860.35,126.42z"/>
	<path class="st13" d="M889.24,128.32c0-0.07-0.02-0.13-0.06-0.19c-0.04-0.06-0.11-0.11-0.2-0.15c-0.09-0.04-0.22-0.07-0.38-0.09
		c-0.16-0.02-0.36-0.03-0.58-0.03c-0.26,0-0.46,0.01-0.62,0.03c-0.16,0.02-0.29,0.05-0.38,0.09c-0.1,0.04-0.17,0.09-0.21,0.15
		c-0.04,0.06-0.06,0.12-0.06,0.19v10.18c0,0.76,0,1.56,0.01,2.39c0,0.83,0.02,1.62,0.04,2.39h-0.01c-0.22-0.45-0.45-0.91-0.68-1.36
		c-0.23-0.45-0.46-0.91-0.69-1.37c-0.23-0.46-0.48-0.94-0.73-1.41c-0.25-0.48-0.51-0.97-0.79-1.47l-4.4-8.24
		c-0.16-0.3-0.31-0.55-0.46-0.75c-0.14-0.2-0.29-0.35-0.45-0.46c-0.15-0.11-0.33-0.19-0.52-0.24c-0.19-0.05-0.44-0.07-0.73-0.07
		h-1.23c-0.26,0-0.5,0.08-0.72,0.25c-0.22,0.16-0.33,0.44-0.33,0.83v17.32c0,0.07,0.02,0.13,0.06,0.2c0.04,0.06,0.11,0.11,0.2,0.15
		c0.09,0.03,0.22,0.06,0.37,0.09c0.16,0.02,0.36,0.04,0.6,0.04c0.24,0,0.45-0.01,0.6-0.04c0.16-0.02,0.29-0.05,0.38-0.09
		c0.1-0.03,0.17-0.08,0.21-0.15c0.04-0.06,0.06-0.13,0.06-0.2v-11.33c0-0.72,0-1.44-0.01-2.16c-0.01-0.73-0.02-1.44-0.04-2.13h0.03
		c0.26,0.57,0.54,1.16,0.85,1.76c0.3,0.6,0.61,1.18,0.91,1.73l5.73,10.68c0.2,0.38,0.38,0.69,0.56,0.93
		c0.17,0.24,0.35,0.43,0.53,0.57c0.17,0.14,0.36,0.24,0.56,0.29c0.19,0.05,0.42,0.08,0.68,0.08h0.83c0.13,0,0.26-0.02,0.39-0.06
		c0.13-0.04,0.25-0.1,0.35-0.19c0.1-0.09,0.19-0.2,0.25-0.33c0.06-0.14,0.1-0.3,0.1-0.49V128.32z"/>
	<path class="st13" d="M901.06,128.28c0-0.08-0.02-0.15-0.06-0.2c-0.04-0.06-0.11-0.1-0.2-0.14c-0.1-0.03-0.22-0.06-0.38-0.09
		c-0.16-0.02-0.36-0.04-0.6-0.04c-0.22,0-0.41,0.01-0.57,0.04c-0.16,0.02-0.29,0.05-0.39,0.09c-0.1,0.03-0.17,0.08-0.22,0.14
		c-0.04,0.06-0.07,0.13-0.07,0.2v18.02c0,0.08,0.02,0.15,0.06,0.2c0.04,0.06,0.11,0.1,0.2,0.14c0.1,0.03,0.23,0.06,0.39,0.09
		c0.16,0.02,0.36,0.04,0.59,0.04c0.24,0,0.44-0.01,0.6-0.04c0.16-0.02,0.29-0.05,0.38-0.09c0.1-0.03,0.16-0.08,0.2-0.14
		c0.04-0.06,0.06-0.13,0.06-0.2V128.28z M898.74,125.81c-0.09,0.11-0.14,0.2-0.16,0.28c-0.02,0.08-0.01,0.14,0.04,0.2
		c0.05,0.05,0.14,0.09,0.26,0.12c0.13,0.02,0.3,0.04,0.52,0.04c0.2,0,0.37-0.01,0.52-0.02c0.14-0.01,0.26-0.04,0.37-0.07
		c0.11-0.03,0.2-0.08,0.28-0.13c0.08-0.05,0.17-0.13,0.27-0.22l3.29-3.08c0.09-0.1,0.14-0.19,0.17-0.28c0.02-0.09,0-0.16-0.07-0.23
		c-0.07-0.07-0.18-0.12-0.35-0.17c-0.16-0.04-0.39-0.07-0.68-0.07c-0.24,0-0.45,0.01-0.62,0.02c-0.17,0.01-0.32,0.04-0.45,0.08
		c-0.13,0.04-0.24,0.09-0.34,0.16c-0.1,0.07-0.21,0.16-0.31,0.29L898.74,125.81z"/>
	<path class="st13" d="M922.58,146.04c-0.03-0.09-0.13-0.26-0.3-0.52l-6.7-8.91l6.22-7.44c0.17-0.22,0.29-0.4,0.36-0.52
		c0.06-0.13,0.09-0.25,0.09-0.38c0-0.07-0.02-0.13-0.05-0.19c-0.03-0.06-0.1-0.11-0.19-0.15c-0.09-0.04-0.22-0.07-0.37-0.09
		c-0.15-0.02-0.36-0.04-0.61-0.04c-0.25,0-0.46,0.01-0.62,0.03c-0.16,0.02-0.3,0.05-0.41,0.08c-0.11,0.03-0.21,0.08-0.28,0.14
		c-0.08,0.06-0.15,0.13-0.2,0.22l-6.64,8.34v-8.34c0-0.08-0.02-0.15-0.06-0.2c-0.04-0.06-0.11-0.1-0.2-0.14
		c-0.1-0.03-0.22-0.06-0.38-0.09c-0.16-0.02-0.36-0.04-0.6-0.04c-0.23,0-0.43,0.01-0.59,0.04c-0.16,0.02-0.3,0.05-0.39,0.09
		c-0.1,0.03-0.16,0.08-0.2,0.14c-0.04,0.06-0.06,0.13-0.06,0.2v18.02c0,0.07,0.02,0.13,0.06,0.2c0.04,0.06,0.11,0.11,0.2,0.15
		c0.1,0.03,0.23,0.06,0.39,0.09c0.16,0.02,0.36,0.04,0.59,0.04c0.24,0,0.44-0.01,0.6-0.04c0.16-0.02,0.29-0.05,0.38-0.09
		c0.1-0.03,0.16-0.08,0.2-0.15c0.04-0.06,0.06-0.13,0.06-0.2v-9.39l6.91,9.39c0.07,0.1,0.15,0.18,0.26,0.26
		c0.11,0.08,0.27,0.13,0.48,0.16c0.21,0.03,0.49,0.04,0.83,0.04c0.26,0,0.47-0.01,0.64-0.04c0.16-0.02,0.29-0.06,0.39-0.09
		c0.1-0.04,0.16-0.09,0.2-0.15c0.03-0.06,0.05-0.13,0.05-0.21C922.63,146.21,922.62,146.13,922.58,146.04z"/>
	<path class="st13" d="M941.45,128.78c0.11-0.21,0.17-0.38,0.2-0.51c0.02-0.13,0-0.22-0.08-0.29c-0.08-0.07-0.22-0.11-0.41-0.14
		c-0.2-0.02-0.47-0.04-0.82-0.04c-0.25,0-0.46,0.01-0.62,0.03c-0.16,0.02-0.29,0.05-0.38,0.08c-0.09,0.03-0.16,0.08-0.22,0.15
		c-0.05,0.07-0.09,0.15-0.12,0.25l-2.61,5.43c-0.24,0.53-0.48,1.07-0.72,1.62c-0.24,0.55-0.46,1.1-0.69,1.65h-0.03
		c-0.25-0.57-0.5-1.14-0.74-1.7c-0.24-0.56-0.48-1.1-0.72-1.61l-2.6-5.4c-0.05-0.1-0.1-0.18-0.15-0.24
		c-0.05-0.06-0.13-0.11-0.24-0.15c-0.11-0.03-0.25-0.06-0.43-0.08c-0.18-0.02-0.41-0.03-0.7-0.03c-0.32,0-0.57,0.01-0.76,0.03
		c-0.19,0.02-0.32,0.06-0.39,0.13c-0.07,0.07-0.1,0.16-0.07,0.29c0.02,0.13,0.09,0.3,0.2,0.52l5.31,10.59v6.92
		c0,0.08,0.02,0.15,0.06,0.2c0.04,0.06,0.11,0.1,0.21,0.14c0.1,0.03,0.23,0.06,0.39,0.09c0.16,0.02,0.36,0.04,0.6,0.04
		c0.23,0,0.43-0.01,0.59-0.04c0.16-0.02,0.29-0.05,0.39-0.09c0.1-0.03,0.16-0.08,0.2-0.14c0.04-0.06,0.06-0.13,0.06-0.2v-6.92
		L941.45,128.78z"/>
</g>
<g id="Kadernictvi">
	<path class="st13" d="M266.67,70.16l14.59-21.14h-15.93l-15.93,23.88V49.02h-16.71v57.76h16.71V93.45l5.99-8.5l9.99,21.83h19.4
		L266.67,70.16z"/>
	<path class="st13" d="M339.44,106.78l-18.11-57.76h-18.74l-17.83,57.76h14.39l3.47-11.38h15.47l3.26,11.38H339.44z M310.3,66.04
		l4.67,16.75h-9.34L310.3,66.04z"/>
	<path class="st13" d="M368.21,106.78c8.26,0,14.99-2.7,20.16-8.1c5.18-5.4,7.76-12.42,7.76-21.05c0-7.56-2.41-14.22-7.24-19.97
		c-4.82-5.75-12.09-8.63-21.79-8.63h-22.34v57.76H368.21z M362.49,62.14h4.61c3.39,0,5.97,1.52,7.76,4.57
		c1.79,3.05,2.69,6.67,2.69,10.87c0,4.91-1.01,8.79-3.03,11.64c-2.02,2.85-4.49,4.27-7.43,4.27h-4.61V62.14z"/>
	<path class="st13" d="M421.01,92.99v-9.44h21.07V70.73h-21.07v-8.38h26.07V49.02h-43.46v57.76h43.46V92.99H421.01z"/>
	<path class="st13" d="M495.06,82.36c4.12-1.95,6.85-4.2,8.21-6.75c1.35-2.55,2.03-5.49,2.03-8.82c0-5.11-1.84-9.22-5.52-12.33
		c-3.68-3.12-8.85-4.68-15.51-4.68H454.1v57.76h17.73V85.45h5.59l8.44,22.09h19.65L495.06,82.36z M471.83,62.05H480
		c4.54,0,6.81,1.85,6.81,5.54c0,1.81-0.68,3.17-2.03,4.1c-1.35,0.93-3.15,1.4-5.37,1.4h-7.57V62.05z M477.14,44.83l17.03-13.46
		l-9.85-0.85l-7.17,5.51l-7.13-5.51l-9.82,0.85L477.14,44.83z"/>
	<path class="st13" d="M563.27,49.02h-14.43v17.09c0,5.16,0.45,10.21,1.35,15.15c-1.38-3.19-3.41-6.88-6.09-11.09l-13.46-21.16
		h-16.76v57.76h14.39V78.81c0-2.59-0.47-5.75-1.4-9.48c2.06,4.68,4.11,8.66,6.14,11.93l15.82,25.52h14.43V49.02z"/>
	<path class="st13" d="M573.34,49.02v57.76h17.73V49.02H573.34z"/>
	<path class="st13" d="M625.05,94.3c-2.62,0-4.66-1.13-6.11-3.39c-1.45-2.26-2.18-6.53-2.18-12.82c0-11.23,2.79-16.84,8.38-16.84
		c2,0,3.74,0.86,5.23,2.58c1.48,1.72,2.22,4.51,2.22,8.38l16.54-0.89c-0.54-7-2.86-12.61-6.96-16.84s-9.98-6.35-17.62-6.35
		c-8.18,0-14.56,2.78-19.13,8.34c-4.57,5.56-6.85,12.86-6.85,21.92c0,9.14,2.41,16.31,7.24,21.5c4.82,5.19,11.16,7.79,19,7.79
		c6.52,0,12.01-1.89,16.48-5.67c4.47-3.78,7.09-9.21,7.85-16.29l-16.21-0.97C632.35,91.11,629.73,94.3,625.05,94.3L625.05,94.3z"/>
	<path class="st13" d="M691.31,62.86V49.02h-40.75v13.84h11.97v43.92h16.8V62.86H691.31z"/>
	<path class="st13" d="M734.16,49.02l-10.67,36.98c-0.48-1.8-1.03-3.64-1.66-5.5l-9.14-31.48h-18.68l18.74,57.76h18.07l17.92-57.76
		H734.16z"/>
	<path class="st13" d="M754.06,49.02v57.76h17.73V49.02H754.06z M756.18,44.07l20.23-7.02l-3.09-8.25l-19.34,9.48L756.18,44.07z"/>
</g>
<g id="_x2116_1">
	<path class="st18" d="M852.9,49.02h-14.43v17.09c0,5.16,0.45,10.21,1.35,15.15c-1.38-3.19-3.41-6.88-6.09-11.09l-13.46-21.16
		h-16.76v57.76h14.39V78.81c0-2.59-0.47-5.75-1.4-9.48c2.06,4.68,4.11,8.66,6.14,11.93l15.82,25.52h14.43V49.02z M885.89,84.67
		c3.03-2.86,4.55-6.31,4.55-10.35c0-4.46-1.53-8.06-4.59-10.81c-3.06-2.75-7.02-4.13-11.87-4.13c-4.88,0-8.86,1.42-11.95,4.25
		c-3.09,2.83-4.63,6.37-4.63,10.6c0,4.15,1.52,7.64,4.57,10.47c3.05,2.83,6.97,4.25,11.76,4.25
		C878.8,88.97,882.85,87.54,885.89,84.67z M871.42,79.2c-0.35-1.27-0.53-2.92-0.53-4.98c0-4.44,1.02-6.66,3.05-6.66
		c1.21,0,2.02,0.56,2.41,1.69c0.39,1.13,0.59,2.67,0.59,4.64c0,2.45-0.21,4.26-0.63,5.44c-0.42,1.18-1.23,1.77-2.41,1.77
		C872.59,81.1,871.77,80.46,871.42,79.2z M858.91,93.5v13.29H889V93.5H858.91z"/>
	<path class="st18" d="M928.94,48.14h-12.52c-2.93,4.6-8.5,7.79-16.71,9.56v12.99c3.05-0.42,7.28-1.83,12.69-4.23v27.46h-14.26
		v12.86h44.43V93.92h-13.62V48.14z"/>
</g>
<g id="Vrstva_6">
	<g>
		
			<linearGradient id="SVGID_00000154383701639086404480000005298543100755557793_" gradientUnits="userSpaceOnUse" x1="186.5621" y1="-658.4741" x2="324.8516" y2="-658.4741" gradientTransform="matrix(1 0 0 1 -108.6586 753.209)">
			<stop  offset="0" style="stop-color:#FF4700"/>
			<stop  offset="1" style="stop-color:#FF6900"/>
		</linearGradient>
		<path style="fill-rule:evenodd;clip-rule:evenodd;fill:url(#SVGID_00000154383701639086404480000005298543100755557793_);" d="
			M193.47,163.5h-92.85c-12.55,0-22.72-10.17-22.72-22.72V48.69c0-12.55,10.17-22.72,22.72-22.72h92.85
			c12.55,0,22.72,10.17,22.72,22.72v92.09C216.19,153.33,206.02,163.5,193.47,163.5z"/>
		<path class="st6" d="M131.39,101.07c2.52-0.02,5.24,1.54,6.31,4.14c0.46,1.11,0.9,2.23,1.33,3.35c0.34,0.88,0.7,1.75,1.1,2.6
			c1.17,2.48,2.82,4.57,4.98,6.27c0.49,0.39,0.99,0.77,1.49,1.15c0.04,0.03,0.08,0.07,0.12,0.1c0.13,0.09,0.24,0.1,0.35,0.02
			c0.8-0.63,1.62-1.24,2.4-1.89c1.9-1.58,3.35-3.51,4.42-5.73c0.55-1.13,1-2.3,1.45-3.47c0.33-0.85,0.66-1.7,1.03-2.54
			c0.91-2.09,2.51-3.37,4.68-3.94c1.5-0.39,2.96-0.21,4.36,0.41c0.88,0.39,1.6,0.99,2.17,1.76c0.71,0.97,1.13,2.05,1.29,3.24
			c0.23,1.64-0.08,3.18-0.85,4.62c-0.89,1.66-2.25,2.79-4.07,3.34c-0.87,0.26-1.75,0.29-2.63,0.09c-0.54-0.12-1.06-0.27-1.57-0.49
			c-0.56-0.24-1.06-0.56-1.47-1.01c-0.12-0.14-0.25-0.27-0.39-0.39c-0.1-0.08-0.22-0.13-0.34-0.18c-0.13-0.06-0.27-0.03-0.37,0.06
			c-0.14,0.11-0.28,0.24-0.39,0.38c-0.24,0.34-0.47,0.69-0.68,1.05c-0.38,0.66-0.73,1.33-1.09,2c-1.21,2.26-2.5,4.47-4.01,6.55
			c-0.05,0.06-0.08,0.13-0.13,0.2c-0.05,0.07-0.05,0.14,0,0.21c0.13,0.2,0.26,0.39,0.39,0.59c3.78,5.36,7.56,10.73,11.34,16.09
			c0.79,1.12,1.38,2.34,1.73,3.67c0.63,2.38,0.27,4.61-1.1,6.66c-0.1,0.14-0.2,0.15-0.3,0.03c-0.05-0.06-0.1-0.12-0.14-0.19
			c-0.09-0.13-0.19-0.25-0.28-0.38c-5-6.84-10-13.67-15-20.51c-0.14-0.19-0.27-0.38-0.42-0.57c-0.14-0.18-0.19-0.17-0.36,0.03
			c-0.1,0.12-0.19,0.25-0.28,0.38c-2.52,3.43-5.05,6.87-7.57,10.3c-2.52,3.43-5.05,6.87-7.57,10.3c-0.12,0.17-0.25,0.33-0.39,0.49
			c-0.02,0.02-0.09,0.01-0.14,0c-0.02,0-0.04-0.03-0.06-0.05c-0.79-1.17-1.27-2.45-1.4-3.86c-0.1-1.06,0.06-2.09,0.35-3.1
			c0.36-1.21,0.9-2.33,1.64-3.37c3.77-5.31,7.53-10.62,11.29-15.93c0.11-0.15,0.21-0.3,0.32-0.45c0.14-0.21,0.14-0.25-0.02-0.48
			c-1.04-1.47-2.01-3-2.88-4.57c-0.51-0.91-0.99-1.84-1.49-2.76c-0.33-0.59-0.66-1.18-1.01-1.77c-0.16-0.27-0.35-0.52-0.59-0.73
			c-0.17-0.15-0.37-0.17-0.58-0.05c-0.09,0.05-0.18,0.11-0.26,0.17c-0.08,0.07-0.15,0.14-0.22,0.22c-0.54,0.64-1.24,1.03-2.02,1.3
			c-0.4,0.13-0.8,0.25-1.21,0.33c-1.28,0.25-2.5,0.07-3.65-0.53c-1.75-0.92-2.93-2.32-3.52-4.22c-0.2-0.65-0.34-1.32-0.37-2
			c-0.07-1.88,0.46-3.56,1.71-4.99c0.78-0.9,1.79-1.42,2.92-1.73C130.33,101.12,130.9,101.06,131.39,101.07 M131.98,111.79
			c1.05,0.01,2.04-0.4,2.71-1.04c0.38-0.37,0.68-0.79,0.84-1.3c0.17-0.55,0.23-1.13,0.13-1.7c-0.3-1.71-1.3-2.87-2.88-3.53
			c-1.08-0.45-2.13-0.36-3.15,0.24c-0.89,0.53-1.39,1.3-1.61,2.29c-0.12,0.57-0.09,1.13,0,1.71
			C128.36,110.46,130.11,111.83,131.98,111.79 M162.3,111.64c1.32,0.05,2.91-0.9,3.53-2.5c0.23-0.59,0.35-1.2,0.32-1.84
			c-0.08-1.74-1.01-2.99-2.85-3.45c-0.28-0.07-0.57-0.09-0.86-0.05c-0.52,0.06-1.02,0.18-1.5,0.42c-0.83,0.43-1.5,1.04-1.98,1.84
			c-0.5,0.83-0.67,1.74-0.53,2.7c0.1,0.67,0.38,1.24,0.85,1.72C160.07,111.28,161.02,111.63,162.3,111.64"/>
		<g>
			<g>
				<g>
					<defs>
						<rect id="SVGID_8_" x="156.14" y="64.45" width="6.61" height="3.02"/>
					</defs>
					<clipPath id="SVGID_00000055684436756404582560000017692313360306817416_">
						<use xlink:href="#SVGID_8_"  style="overflow:visible;"/>
					</clipPath>
					<path style="clip-path:url(#SVGID_00000055684436756404582560000017692313360306817416_);fill:#010101;" d="M156.14,65.39
						l1.83-0.43l2.25,0.22c0,0,1.13,1.27,0.81,1.8l1.14,0.5c0,0,0.76-0.03,0.54-0.51l-1.28-2.01l-1.51-0.35l-1.85-0.15l-1.44,0.4
						L156.14,65.39z"/>
				</g>
				<g>
					<defs>
						<rect id="SVGID_7_" x="168.97" y="66.02" width="11.99" height="2.4"/>
					</defs>
					<clipPath id="SVGID_00000108271234170067600010000002362771313746275744_">
						<use xlink:href="#SVGID_7_"  style="overflow:visible;"/>
					</clipPath>
					<polygon style="clip-path:url(#SVGID_00000108271234170067600010000002362771313746275744_);fill:#010101;" points="
						168.97,67.15 169.49,68.2 170.47,68.42 172.28,66.98 176.03,66.77 180.96,68.42 176.48,66.02 171.6,66.02 					"/>
				</g>
				<path class="st13" d="M173.97,51.76c-12.86,0-23.29,10.45-23.29,23.34c0,12.89,10.43,23.33,23.29,23.33
					c12.86,0,23.28-10.45,23.28-23.33C197.25,62.21,186.83,51.76,173.97,51.76 M173.85,92.77c-11.79,0-21.36-7.66-21.36-17.1
					c0-9.44,9.56-17.1,21.36-17.1c11.79,0,21.35,7.66,21.35,17.1C195.2,85.11,185.64,92.77,173.85,92.77"/>
				<path class="st13" d="M177.39,69.65c-0.09,0.5-0.27,0.91-0.47,1.3c-0.04,0.08-0.13,0.13-0.21,0.19
					c-0.05,0.04-0.12,0.05-0.18,0.07c-0.45,0.12-0.83,0.32-0.9,0.85c-0.25,0.52-0.84,0.78-1.37,0.61c-0.5-0.16-0.83-0.67-0.78-1.2
					c0.05-0.51,0.48-0.94,1.01-1c0.12-0.01,0.26,0,0.38,0.02c0.43,0.05,0.75-0.11,0.93-0.5c0.01-0.02,0.05-0.06,0.06-0.06
					c0.05,0.03,0.12,0.06,0.14,0.11c0.06,0.15,0.09,0.3,0.16,0.45c0.02,0.04,0.11,0.06,0.16,0.05c0.19-0.03,0.36-0.13,0.49-0.27
					C177.01,70.09,177.17,69.9,177.39,69.65"/>
				<path class="st13" d="M156.23,69.19c0.28,0.05,0.38,0.33,0.61,0.44c0.08,0.04,0.2,0.09,0.26,0.06c0.06-0.03,0.08-0.16,0.12-0.24
					c0.03-0.06,0.04-0.12,0.07-0.17c0.01-0.03,0.04-0.05,0.07-0.06c0.03-0.01,0.07,0,0.09,0.01c0.27,0.24,0.57,0.4,0.95,0.37
					c0.06-0.01,0.13,0.02,0.18,0.05c0.53,0.17,0.84,0.72,0.74,1.3c-0.08,0.49-0.59,0.91-1.1,0.9c-0.45,0-0.88-0.31-1.04-0.73
					c-0.03-0.09-0.06-0.18-0.07-0.28c-0.02-0.25-0.16-0.4-0.37-0.52c-0.4-0.23-0.53-0.62-0.54-1.05c0-0.03,0.02-0.06,0.03-0.09
					L156.23,69.19z"/>
				<path class="st13" d="M161.25,78.17c-0.03,0.02-0.05,0.05-0.08,0.05c-0.36,0.03-0.69-0.11-1.01-0.26
					c-0.05-0.02-0.09-0.09-0.12-0.14c-0.02-0.03-0.03-0.06-0.03-0.09c-0.12-0.44-0.24-0.87-0.35-1.31c0.14-0.44,0.45-0.78,0.69-1.15
					c0.35-0.54,0.71-1.07,1.07-1.61c0.05-0.08,0.11-0.16,0.19-0.21c0.04-0.03,0.13-0.04,0.18-0.02c0.04,0.02,0.1,0.1,0.09,0.14
					c-0.01,0.13-0.04,0.25-0.09,0.37c-0.32,0.74-0.64,1.48-0.97,2.21c-0.1,0.22-0.11,0.43-0.02,0.65c0.15,0.39,0.3,0.78,0.44,1.18
					C161.25,78.04,161.24,78.11,161.25,78.17"/>
				<path class="st13" d="M165.73,85.6c-0.67,0.13-1.43,0.01-2.19-0.08c-0.09-0.01-0.18-0.03-0.27-0.07
					c-0.35-0.16-0.7-0.31-1.03-0.51c-0.27-0.17-0.47-0.43-0.6-0.74c-0.05-0.13-0.1-0.26-0.13-0.39c-0.04-0.22-0.12-0.4-0.36-0.47
					c-0.11-0.03-0.15-0.14-0.16-0.26c-0.02-0.26-0.02-0.52,0.06-0.77c0.29-0.99,0.18-0.88,0.31-1.11c0.03-0.06,0.55-0.94,1.34-0.98
					c0.64-0.04,0.77,0.52,1.52,0.47c0.52-0.03,1-0.28,1-0.28c0.26-0.17,0.87-0.5,1.7-0.48c0.19,0,0.91,0.04,1.58,0.49
					c0.18,0.12,0.7,0.51,1.17,1.07c0.13,0.15,0.24,0.29,0.45,0.42c0.25,0.15,0.53,0.23,0.84,0.25c0.05,0,0.09,0.01,0.14,0.02
					c0.13,0.02,0.17,0.1,0.13,0.24c-0.02,0.07-0.05,0.15-0.09,0.21c-0.24,0.39-0.48,0.78-0.73,1.17c-0.04,0.06-0.11,0.11-0.16,0.16
					c-0.05,0.04-0.1,0.07-0.15,0.11c-1.2,0.84-1.27,0.88-2.64,1.36c-0.16,0.05-0.32,0.09-0.49,0.09
					C166.46,85.55,166.04,85.61,165.73,85.6 M162.22,83.15c0.42,0.12,0.8,0.26,1.23,0.22c1.13-0.11,2.26-0.18,3.4-0.13
					c0.48,0.02,0.93-0.13,1.39-0.29c-0.1-0.13-0.23-0.13-0.34-0.17c-0.39-0.13-0.8-0.23-1.13-0.49c-0.11-0.09-0.25-0.11-0.39-0.11
					c-0.57-0.01-1.13-0.01-1.7-0.03c-0.45-0.01-0.88,0.08-1.33,0.12c-0.12,0.01-0.24,0.04-0.33,0.13
					C162.75,82.65,162.5,82.89,162.22,83.15 M166.14,83.84c-0.07,0.02-0.18,0.04-0.27,0.09c-0.34,0.18-0.35,0.6-0.03,0.81
					c0.2,0.13,0.49,0.12,0.69-0.02c0.27-0.2,0.27-0.58-0.01-0.76C166.42,83.88,166.3,83.85,166.14,83.84"/>
				<path id="Hair_Girl_A_2_" class="st6" d="M196.24,76.74c0.63-1.83,1.56-5.36,0.82-9.65c-0.77-4.5-2.97-7.42-4.51-9.47
					c-4.12-5.48-9.1-7.81-10.29-8.34c-0.99-0.44-3.95-1.68-8.02-2.09c-0.8-0.08-4.08-0.37-8.28,0.46c-3.78,0.74-6.82,2.1-9,3.33
					c2.91-0.54,3.52-0.4,3.59-0.2c0.18,0.55-3.55,1.4-6.52,4.37c-3.42,3.41-4.14,7.85-4.44,9.72c-0.77,4.8,0.39,8.68,1.11,10.56
					c1.03-5.4,3.19-8.9,4.63-10.83c2.58-3.45,4.23-3.68,4.76-3.72c2.02-0.14,3.29,1.48,5.15,3c6.26,5.1,11.09,2.41,15.72,6.72
					c1.56,1.45,3.41,3.98,4.17,8.68c0.69-0.79,1.61-2.09,1.96-3.85c0.4-2.03-0.25-3.19,0.26-3.65
					C187.93,71.26,189.89,71.75,196.24,76.74z"/>
				<path id="Hair_Girl_B_2_" class="st6" d="M176.63,48.69c0.14-1.05,0.7-4.11,3.27-6.74c2.76-2.82,6.05-3.32,7.22-3.48
					c2.09-0.29,5.27-0.72,7.74,1.48c2.05,1.82,3.02,4.92,2.17,7.65c-0.2,0.63-1.04,3.02-3.5,4.16c-1.32,0.61-2.55,0.59-3.2,0.54
					c0.23-0.11,0.73-0.39,1.04-0.96c0.21-0.39,0.4-1,0.22-1.13c-0.24-0.17-0.8,0.74-1.78,0.87c-0.65,0.08-1.21-0.2-1.57-0.43
					c0.41-0.18,1.14-0.59,1.57-1.39c0.28-0.52,0.42-1.17,0.26-1.26c-0.17-0.09-0.52,0.57-1.22,0.96c-0.77,0.42-1.65,0.33-2.34,0.15
					c1.53-0.72,2.33-1.97,2.08-2.89c-0.25-0.93-1.52-1.28-1.91-1.39c-1.81-0.49-4.15,0.17-4.87,1.39c-1.08,1.82,0.93,5.7,5.49,9.25
					C183.74,53.21,180.19,50.95,176.63,48.69z"/>
			</g>
			<g>
				<g>
					<defs>
						<rect id="SVGID_6_" x="110.77" y="63.58" width="10.16" height="6.59"/>
					</defs>
					<clipPath id="SVGID_00000001641803738486640970000018364191025420567939_">
						<use xlink:href="#SVGID_6_"  style="overflow:visible;"/>
					</clipPath>
					<polygon style="clip-path:url(#SVGID_00000001641803738486640970000018364191025420567939_);fill:#010101;" points="
						120.93,63.58 119.94,65.21 115.96,65.34 112.62,70.17 110.77,68.72 115.36,63.58 					"/>
				</g>
				<g>
					<defs>
						<rect id="SVGID_5_" x="129.88" y="63.22" width="8.47" height="4.14"/>
					</defs>
					<clipPath id="SVGID_00000168838348043502143130000007806695265341039253_">
						<use xlink:href="#SVGID_5_"  style="overflow:visible;"/>
					</clipPath>
					<polygon style="clip-path:url(#SVGID_00000168838348043502143130000007806695265341039253_);fill:#010101;" points="
						129.88,63.22 130.12,64.78 132.68,64.48 138.15,67.36 138.35,67.3 135.62,64.07 134.56,63.71 					"/>
				</g>
				<g>
					<defs>
						<rect id="SVGID_4_" x="126.85" y="73.4" width="9.32" height="9.78"/>
					</defs>
					<clipPath id="SVGID_00000087378731028920347590000000161447435270087579_">
						<use xlink:href="#SVGID_4_"  style="overflow:visible;"/>
					</clipPath>
					<polygon style="clip-path:url(#SVGID_00000087378731028920347590000000161447435270087579_);fill:#010101;" points="
						126.85,74.37 129.13,73.4 136.17,78.32 130.98,83.18 129.88,81.62 133.56,78.79 					"/>
				</g>
				<g>
					<defs>
						<rect id="SVGID_3_" x="107.5" y="78.1" width="17.5" height="6.93"/>
					</defs>
					<clipPath id="SVGID_00000129177528719840546050000011874544883338060935_">
						<use xlink:href="#SVGID_3_"  style="overflow:visible;"/>
					</clipPath>
					<polygon style="clip-path:url(#SVGID_00000129177528719840546050000011874544883338060935_);fill:#010101;" points="
						107.5,78.29 110.31,82.51 123.61,85.03 124.99,83.04 111.09,80.23 110.33,78.1 					"/>
				</g>
				<path class="st13" d="M120.05,51.03c-12.86,0-23.29,10.61-23.29,23.7c0,13.09,10.43,23.69,23.29,23.69s23.28-10.61,23.28-23.69
					C143.33,61.63,132.91,51.03,120.05,51.03 M120.18,92.73c-11.79,0-21.35-7.66-21.35-17.1c0-9.44,9.56-17.1,21.35-17.1
					c11.79,0,21.35,7.66,21.35,17.1C141.53,85.07,131.97,92.73,120.18,92.73"/>
				<g>
					<defs>
						<rect id="SVGID_2_" x="118.02" y="70.5" width="2.13" height="2.13"/>
					</defs>
					<clipPath id="SVGID_00000069359645847406126870000017174949330841996935_">
						<use xlink:href="#SVGID_2_"  style="overflow:visible;"/>
					</clipPath>
					<path style="clip-path:url(#SVGID_00000069359645847406126870000017174949330841996935_);fill:#010101;" d="M118.02,71.56
						c0-0.59,0.48-1.06,1.06-1.06c0.59,0,1.07,0.48,1.07,1.06c0,0.59-0.48,1.07-1.07,1.07C118.5,72.63,118.02,72.15,118.02,71.56"/>
				</g>
				<g>
					<defs>
						<rect id="SVGID_1_" x="134.53" y="69.53" width="2.13" height="2.13"/>
					</defs>
					<clipPath id="SVGID_00000162349478528974930070000008663711264901388983_">
						<use xlink:href="#SVGID_1_"  style="overflow:visible;"/>
					</clipPath>
					<path style="clip-path:url(#SVGID_00000162349478528974930070000008663711264901388983_);fill:#010101;" d="M134.53,70.59
						c0-0.59,0.48-1.07,1.07-1.07c0.59,0,1.06,0.48,1.06,1.07c0,0.59-0.48,1.07-1.06,1.07C135.01,71.66,134.53,71.18,134.53,70.59"
						/>
				</g>
				<path class="st6" d="M124.83,66.05l-15.85,1.35l2.16,9.29l15.48-2.79L124.83,66.05z M112.62,75.22l-1.03-5.96L123.75,68
					l0.85,5.18L112.62,75.22z"/>
				<path class="st6" d="M128.45,65.78l-0.35,8.07l15.68-0.03l0.63-9.45L128.45,65.78z M142.09,72.63h-12.05l-0.15-5.19l12.26-0.8
					L142.09,72.63z"/>
				<path id="NEW_HAIR_BOY_2_" class="st6" d="M114.13,57.45c-0.89-2.18-0.68-3.81-0.5-4.64c0.9-3.94,5.48-7.03,11.4-7.27
					c-0.75,0.25-1.79,0.69-2.87,1.46c-1.66,1.18-3.22,3.02-2.96,3.35c0.35,0.45,3.69-2.36,7.61-4.04c3.52-1.51,8.68-2.61,16.05-1.13
					c-1.51,0.14-3.76,0.52-6.21,1.66c-2.92,1.35-5.14,3.31-4.96,3.6c0.24,0.4,4.44-3.19,9.45-2.55c2.42,0.31,4.34,1.52,5.72,2.68
					c-1.47-0.24-3.73-0.42-6.35,0.17c-2.36,0.54-4.44,1.58-4.35,1.91c0.11,0.41,3.47-0.93,7.39,0.17c1.7,0.48,3,1.27,3.87,1.91
					c-1.61,0.18-3.64,0.58-5.87,1.43c-3.46,1.32-5.94,3.19-7.48,4.57c-2.08-1.12-5.21-2.49-9.22-3.22
					C120.37,56.71,116.59,57.04,114.13,57.45z"/>
			</g>
		</g>
	</g>
</g>
</svg>
